<svg xmlns="http://www.w3.org/2000/svg" fill="none" viewBox="0 0 1920 4320">
<!--    <clipPath id="yellow" clipPathUnits="objectBoundingBox" transform="scale(0.0005208333333 0.0002314814815)">-->
        <path fill="#FEE99D" d="M250 258C232 194 112 23 0 0v3160c210-124 325-657 362-860 38-202 381-520 434-564 54-43 685-320 677-513-8-192-239-407-647-488a768 768 0 0 1-576-477Z"/>
<!--
    </clipPath>
    <clipPath id="blue" clipPathUnits="objectBoundingBox" transform="scale(0.0005208333333 0.0002314814815)">
    -->
        <path fill="#C2E9EE" d="M1348 1972c66-287 309-358 572-492l-1 2840c-129-147-218 7-351-97-305-238-1134 268-1353-221-182-405-41-1205 384-1073 244 76 148 555 400 517 233-35 197-315 280-536 70-186 120-293 130-492 9-175-100-275-61-446Z"/>
<!--    </clipPath>-->
</svg>