<!--
<svg xmlns="http://www.w3.org/2000/svg" viewBox="0 0 311.46 127.01">
    <path fill="none" d="M0 0h311.46v127.01H0z"/>
    <path fill="#1d1d1b" d="M60.03 12.89h.88v61.17h-.88V12.89z"/>
    <path fill="#1d1d1b" fill-rule="evenodd"
          d="M46.1 41.35a7.77 7.77 0 0 1-.1 7c-1.19 2.61-5.31 4.62-5.79 4.8A9.64 9.64 0 0 1 48.5 60a11.67 11.67 0 0 1-2.35 11c-2.19 2.3-4.81 3.4-9.53 3.31-3.15-.06-4.89-.32-8-.29-1.35 0-2.27.1-2.27.1L26.22 73c.91-.21 2.24.1 3.08-1.22.36-.54.6-4.25.67-7 .09-3.47.13-8.9.13-8.9s0-6-.13-9.91c0-.62 0-1-.06-1.58-.09-1.77-.33-4.54-.33-4.54-.13-.7-.08-1.28-1.1-1.76a6.39 6.39 0 0 0-2.86-.44v-.93a60.85 60.85 0 0 0 9.45.06c4.82-.32 9.2.37 11 4.52zm-4.18.08a7.68 7.68 0 0 1 .72 7.57 6.76 6.76 0 0 1-6.11 3.7 4.87 4.87 0 0 1-1.73-.32l-.33 1.87a6.72 6.72 0 0 1 2.36-.3c3.31 0 5.14 1.87 6.84 4.6a10.8 10.8 0 0 1-.28 10.91c-2 2.65-4.71 3.41-8 2.84a6.67 6.67 0 0 1-2-.61s-.15-5.8-.2-9.5c-.08-6.06 0-9.48 0-15.54 0-3.07.11-7.89.11-7.89a9.48 9.48 0 0 1 6.69.89 6.33 6.33 0 0 1 1.88 1.8z"/>
    <path fill="#1d1d1b"
          d="M31.67 14.13a1.13 1.13 0 1 1 2.25 0 1.13 1.13 0 0 1-2.25 0zm-2.51.19a1.12 1.12 0 1 1 1.12 1.12 1.12 1.12 0 0 1-1.12-1.12zm-1.09 4.26a1.12 1.12 0 1 1 1.12 1.12 1.12 1.12 0 0 1-1.12-1.12zm-.56-2.4a1.13 1.13 0 1 1 1.13 1.12 1.13 1.13 0 0 1-1.13-1.12zm-2.33-1.05a1.12 1.12 0 1 1 1.12 1.12 1.12 1.12 0 0 1-1.12-1.12zm-2.38.95a1.13 1.13 0 1 1 1.12 1.12 1.13 1.13 0 0 1-1.12-1.12zm-1.61 2.03a1.12 1.12 0 1 1 1.12 1.12 1.13 1.13 0 0 1-1.12-1.12zm.2 2.56a1.13 1.13 0 1 1 1.12 1.12 1.13 1.13 0 0 1-1.12-1.12zM27.4 31c0-.76 4.21-1.38 9.4-1.38s9.41.62 9.41 1.38-4.21 1.36-9.41 1.36-9.4-.61-9.4-1.37zm9.38-16.32A1.92 1.92 0 0 1 34.85 13a4.2 4.2 0 0 1 1.93-.35 4.22 4.22 0 0 1 1.94.35 1.91 1.91 0 0 1-1.94 1.66zm2.81-.59a1.12 1.12 0 1 1 1.12 1.12 1.12 1.12 0 0 1-1.12-1.12zm2.5.17a1.13 1.13 0 1 1 1.12 1.12 1.12 1.12 0 0 1-1.12-1.12zm1.66 1.84a1.12 1.12 0 1 1 1.12 1.12 1.12 1.12 0 0 1-1.12-1.12zm2.32-1.1a1.12 1.12 0 1 1 1.12 1.12A1.12 1.12 0 0 1 46.07 15zm-2.87 3.5a1.12 1.12 0 1 1 1.12 1.12 1.12 1.12 0 0 1-1.12-1.12zm5.27-2.5a1.13 1.13 0 0 1 2.25 0 1.13 1.13 0 1 1-2.25 0zm1.65 2a1.12 1.12 0 1 1 1.12 1.12A1.12 1.12 0 0 1 50.12 18zm-.19 2.53a1.12 1.12 0 1 1 1.12 1.12 1.12 1.12 0 0 1-1.12-1.12z"/>
    <path fill="#1d1d1b" fill-rule="evenodd"
          d="M38.71 12.31a2 2 0 0 0-1.11-1.38l-.53-.93.09-.11.88.45V8.89l-.85.46-.12-.12.53-.87H36l.52.86-.12.13-.85-.46v1.43l.88-.46.1.12-.53.94a2 2 0 0 0-1.11 1.39S35 12 36.27 12v-1a1.79 1.79 0 0 1 .51-.07 1.75 1.75 0 0 1 .51.07v1c1.31 0 1.42.35 1.42.35zm-1.93 6.61a3.2 3.2 0 0 0-1.3.18 6.91 6.91 0 0 0-1.42-4.53c-.05-.37.52-.58.52-.58A2.53 2.53 0 0 0 39 14s.57.21.52.58a6.91 6.91 0 0 0-1.42 4.53 3.16 3.16 0 0 0-1.3-.18z"/>
    <path fill="#1d1d1b"
          d="M36.78 19.32a1.58 1.58 0 0 1 1.24.35c0 .56-.25.64-.45.84a.63.63 0 0 0 .29 1 .77.77 0 0 0 .68-.36c.11-.16.14-.36.34-.39s.38.32.45.6-.13 1.69-.71 1.58c-.39-.08-.22-.55-.71-.73a.84.84 0 0 0-.71 0c-.37.16-.22 1 0 1.54a1.28 1.28 0 0 0 .62.73c1.08.47 1.78-1.73 1.89-2.08a.43.43 0 0 1-.17-.54.43.43 0 0 1 .32-.28.45.45 0 0 1 .52.28.43.43 0 0 1-.08.45.38.38 0 0 1-.29.15c-.08.48-.24 2 .58 2.26.35.12.94-.32 1.25-.8s.67-1.37.17-1.5a.57.57 0 0 0-.61.1c-.35.31-.45.65-.78.53s-.1-.62 0-1 .28-1.12.65-1.13.26.65.78.79a.51.51 0 0 0 .51-.22.75.75 0 0 0 .14-.59c0-.3-.26-.43-.25-.74 0-.85 2-.53 2.16.29.1.42-1.15.71-1.05 1.4 0 .24.35.19.6.11.44-.13.43-.47.81-.53.83-.11-.39 2.53-.85 2-.16-.2-.06-.46-.26-.62a.7.7 0 0 0-.24-.13c-.63-.21-1.08.69-1 1.34 0 .41.11.81.49.91.55.14 1.55-.61 2.22-1.8a.45.45 0 0 1 0-.52.46.46 0 0 1 .43-.21.39.39 0 0 1 .3.16.42.42 0 0 1 0 .54.41.41 0 0 1-.41.18c-.25.55-.95 2-.12 2.23.46.15 1.33-.52 1.47-.64.41-.38 1.16-1 .76-1.23s-1.07.62-1.46.2c-.25-.25.07-.88.37-1.34.18-.27.27-.54.59-.6.52-.1.32.92.83 1.07 1 .29.28-1.49 1.19-1.58.4 0 .68 0 .85.34a1.15 1.15 0 0 1 0 .6 23.23 23.23 0 0 0-4 4.95c-.33-.92-4.16-1.6-9.36-1.6s-9.07.66-9.4 1.58a19.35 19.35 0 0 0-4-4.93 1.15 1.15 0 0 1 0-.6c.17-.32.45-.38.85-.34.91.09.15 1.87 1.19 1.58.51-.15.31-1.17.83-1.07.32.06.41.33.59.6.3.46.62 1.09.38 1.34-.4.42-.92-.55-1.47-.2s.35.85.77 1.23c.13.12 1 .79 1.46.64.83-.26.13-1.68-.12-2.23a.42.42 0 0 1-.41-.18.44.44 0 0 1 0-.54.41.41 0 0 1 .31-.16.44.44 0 0 1 .42.21.45.45 0 0 1 0 .52c.66 1.19 1.67 1.94 2.21 1.8s.46-.5.49-.91c.06-.65-.4-1.55-1-1.34a.85.85 0 0 0-.25.13c-.2.16-.09.42-.26.62-.46.55-1.68-2.09-.85-2 .38.06.37.4.82.53.24.08.56.13.59-.11.1-.69-1.15-1-1-1.4.2-.82 2.11-1.14 2.15-.29 0 .31-.25.44-.25.74a.8.8 0 0 0 .14.59.53.53 0 0 0 .52.22c.51-.14.34-.81.77-.79s.55.63.66 1.13.18.93 0 1-.42-.22-.77-.53a.57.57 0 0 0-.61-.1c-.51.13-.15 1 .17 1.5s.9.92 1.24.8c.83-.29.66-1.78.58-2.26a.36.36 0 0 1-.28-.15.4.4 0 0 1-.08-.45.44.44 0 0 1 .51-.28.45.45 0 0 1 .15.82c.11.35.82 2.55 1.89 2.08a1.28 1.28 0 0 0 .62-.73c.26-.54.41-1.38 0-1.54a.84.84 0 0 0-.71 0c-.49.18-.32.65-.71.73-.58.11-.79-1.27-.71-1.58s.16-.66.45-.6.23.23.34.39a.77.77 0 0 0 .68.36.62.62 0 0 0 .29-1c-.19-.2-.45-.28-.45-.84a1.58 1.58 0 0 1 1.24-.35z"/>
    <path fill="#1d1d1b" fill-rule="evenodd"
          d="m36.78 26.43-1.88 1.11 1.88 1.12 1.89-1.13-1.89-1.1zm6.45 2.3-2.92-.35v-1.45l2.92.32v1.48zm1.22-.47 1.14-.26.76 1.18-.71.36-1.19-1.28zm-14.12.47 2.93-.35v-1.45l-2.93.32v1.48zm-1.22-.47L28 28l-.77 1.18.71.36 1.19-1.28zm7.67-2c5.2 0 9.43.52 9.26 1.68 0 .32.3.69.79 1.34-.23.23-.89.24-.81.87-.72-.73-5.58-1.15-9.24-1.15s-8.52.44-9.23 1.16c.08-.63-.59-.64-.81-.87.48-.65.78-1 .78-1.34-.16-1.16 4.06-1.68 9.26-1.68z"/>
    <path fill="#1d1d1b"
          d="M12.91 12.89h.88v61.17h-.88V12.89zm61.3 31.76v5.4h-1.6V37.93h6.91v1.37h-5.31v4h5.31v1.35zm11.57 5.56a4.1 4.1 0 0 1 .07-8.21 3.81 3.81 0 0 1 4 4.12 3.87 3.87 0 0 1-4.07 4.09zm0-7.09a2.51 2.51 0 0 0-2.47 2.81c0 1.69.83 3.18 2.7 3.18 1.62 0 2.34-1.29 2.34-2.84-.03-1.82-1-3.15-2.6-3.15zm12.16 6.93v-5.17a1.51 1.51 0 0 0-1.71-1.64 2.83 2.83 0 0 0-1.87.63v6.18h-1.5v-7.87h1.5V43a4.49 4.49 0 0 1 2.53-1 2.32 2.32 0 0 1 2.5 2.47c.07 1.2 0 5.56 0 5.56zm10.13 0v-.72a3.48 3.48 0 0 1-2.36.84c-1.94 0-3.36-1.56-3.36-3.85a4 4 0 0 1 4.1-4.3 4.47 4.47 0 0 1 1.62.27v-5h1.49v12.76zm0-6.52a2.79 2.79 0 0 0-1.6-.45c-1.26 0-2.58.67-2.58 3 0 1.89.89 3 2.58 3a2.52 2.52 0 0 0 1.6-.62zm9.79 6.64c-.81 0-1.13-.9-1.13-.9a3.2 3.2 0 0 1-2.06.94 2.09 2.09 0 0 1-2.21-2.09 2.39 2.39 0 0 1 2-2.28 11.6 11.6 0 0 1 2.25-.42v-.57a1.73 1.73 0 0 0-.25-1.21 1.55 1.55 0 0 0-1.24-.43 3.51 3.51 0 0 0-2.29.92l-.27-1.1a6.13 6.13 0 0 1 3-1c1.63 0 2.42.86 2.42 1.93 0 1.56-.07 3.07-.07 3.85 0 .93.17 1.29.71 1.29a1.91 1.91 0 0 0 .79-.18v.8a4.42 4.42 0 0 1-1.65.45zm-2.56-3.67c-.75.2-1.38.63-1.38 1.32a1.29 1.29 0 0 0 1.38 1.31 1.91 1.91 0 0 0 1.34-.67v-2.19a6.75 6.75 0 0 0-1.34.23zm8.43 3.71a1.57 1.57 0 0 1-1.62-1 7.17 7.17 0 0 1-.2-2.31v-3.44h-1.24v-1.1H122l.47-1.92h1v1.94h2.33v1h-2.4s0 1.49-.05 2.93a8.88 8.88 0 0 0 .11 2 .75.75 0 0 0 .81.58 2.62 2.62 0 0 0 1.58-.69l.18 1a3.8 3.8 0 0 1-2.3 1.01zm5.67-10.33a1 1 0 1 1 1-1 1 1 0 0 1-1 1zm-.72 10.17v-7.87h1.49v7.87zm8.44.16a4.1 4.1 0 0 1 .07-8.19 3.81 3.81 0 0 1 4 4.12 3.87 3.87 0 0 1-4.07 4.07zm0-7.09c-1.62 0-2.46 1.28-2.46 2.81 0 1.69.83 3.18 2.7 3.18 1.62 0 2.34-1.29 2.34-2.84-.04-1.82-1.01-3.15-2.62-3.15zm12.15 6.93v-5.17c-.08-1.08-.56-1.64-1.71-1.64a2.87 2.87 0 0 0-1.88.63v6.18h-1.49v-7.87h1.49V43a4.53 4.53 0 0 1 2.58-.95 2.33 2.33 0 0 1 2.5 2.47c.07 1.2 0 5.56 0 5.56zM82.54 74a3.51 3.51 0 0 1-.91.11 1.91 1.91 0 0 1-1.23-.38 15.07 15.07 0 0 1-2.09-2c-.84-.93-2.1-2.54-2.1-2.54h-2v5h-1.6V61.93h3a5.93 5.93 0 0 1 2.88.55 2.9 2.9 0 0 1 1.57 2.7 3.7 3.7 0 0 1-2.33 3.47s.94 1.17 2 2.29a16.1 16.1 0 0 0 1.69 1.63c.75.62 1.22.49 1.22.49zm-4.89-10.39a3.37 3.37 0 0 0-2.13-.61h-1.31v5a13.81 13.81 0 0 0 1.44.09 2.49 2.49 0 0 0 2.74-2.74 2.23 2.23 0 0 0-.74-1.74zm10.66 10.6a4.1 4.1 0 0 1 .07-8.21 3.8 3.8 0 0 1 4 4.12 3.87 3.87 0 0 1-4.07 4.09zm0-7.09a2.51 2.51 0 0 0-2.47 2.81c0 1.69.83 3.18 2.7 3.18 1.62 0 2.34-1.29 2.34-2.84-.04-1.82-1.01-3.15-2.61-3.15zM96 63.88a1 1 0 1 1 1-1 1 1 0 0 1-1 1zm-.72 10.17v-7.87h1.49v7.87zm13.33.02h-3.44V61.93h3.19c2.3 0 4 .76 4 2.87a3.11 3.11 0 0 1-1.76 2.7s2.66.52 2.66 2.93c.01 2.66-2.17 3.64-4.65 3.64zM108.16 63h-1.39v4.07h1.3c1.93 0 2.57-1 2.57-2.18s-.91-1.89-2.48-1.89zm2.34 5.75a4.51 4.51 0 0 0-2.48-.51h-1.25v4.55a10.35 10.35 0 0 0 1.87.11c1.55 0 2.87-.63 2.87-2.32a2.1 2.1 0 0 0-1.01-1.82zm10.67 5.42c-.81 0-1.13-.9-1.13-.9a3.16 3.16 0 0 1-2.05.94 2.09 2.09 0 0 1-2.22-2.09 2.39 2.39 0 0 1 2-2.28 11.6 11.6 0 0 1 2.25-.42v-.57a1.73 1.73 0 0 0-.25-1.21 1.55 1.55 0 0 0-1.24-.43 3.51 3.51 0 0 0-2.29.92L116 67a6.13 6.13 0 0 1 3-1c1.63 0 2.43.86 2.43 1.93 0 1.56-.08 3.07-.08 3.85 0 .93.17 1.29.71 1.29a1.85 1.85 0 0 0 .79-.18v.8a4.42 4.42 0 0 1-1.68.48zm-2.55-3.67c-.76.2-1.39.63-1.39 1.32a1.29 1.29 0 0 0 1.39 1.31 1.91 1.91 0 0 0 1.33-.67v-2.19a6.64 6.64 0 0 0-1.33.23zm11.53 3.55v-.78a4.57 4.57 0 0 1-2.59.87 2.26 2.26 0 0 1-2.45-2.43c-.07-1.21 0-5.53 0-5.53h1.49v5.17c.07 1.08.5 1.62 1.65 1.62a2.78 2.78 0 0 0 1.89-.69v-6.1h1.5v7.87zm10.19 0v-.72a3.45 3.45 0 0 1-2.35.84c-2 0-3.37-1.56-3.37-3.85a4 4 0 0 1 4.1-4.3 4.47 4.47 0 0 1 1.62.27v-5h1.5v12.76zm0-6.52a2.79 2.79 0 0 0-1.6-.45c-1.26 0-2.57.67-2.57 3 0 1.89.88 3 2.57 3a2.48 2.48 0 0 0 1.6-.62zm8.48 6.68a4.1 4.1 0 0 1 .07-8.19 3.81 3.81 0 0 1 4 4.12 3.87 3.87 0 0 1-4.07 4.07zm0-7.09c-1.62 0-2.46 1.28-2.46 2.81 0 1.69.83 3.18 2.7 3.18 1.62 0 2.34-1.29 2.34-2.84-.04-1.82-1.01-3.15-2.62-3.15zm12.04 6.93v-.78a4.57 4.57 0 0 1-2.59.87 2.26 2.26 0 0 1-2.45-2.43c-.07-1.21 0-5.53 0-5.53h1.5v5.17c.08 1.08.51 1.62 1.66 1.62a2.78 2.78 0 0 0 1.89-.69v-6.1h1.49v7.87zm5.99-10.17a1 1 0 0 1 0-2 1 1 0 1 1 0 2zm-.72 10.17v-7.87h1.5v7.87zm10.39 0v-5.17a1.51 1.51 0 0 0-1.71-1.64 2.86 2.86 0 0 0-1.87.63v6.18h-1.49v-7.87h1.49V67a4.53 4.53 0 0 1 2.58-1 2.33 2.33 0 0 1 2.5 2.47c.07 1.2 0 5.56 0 5.56zM19.33 94.75l-.71-3.17h-2.84l-1.62 3.17h-1.08L17.67 86h.77l2 8.75zm-1.58-7-1.52 3h2.19zm8.76 3.93a9.94 9.94 0 0 0-.36 2.52c0 .31.06 1 .06 1.28a2.65 2.65 0 0 1-.81 2.26 3.08 3.08 0 0 1-2.14.67 3.8 3.8 0 0 1-2.43-.85l.3-.85a3.8 3.8 0 0 0 2.26.88A1.87 1.87 0 0 0 25 97a2.39 2.39 0 0 0 .31-1.46c0-.6-.05-1-.05-1.32a2 2 0 0 1 .14-1 3.6 3.6 0 0 1-2.65 1.62c-.66 0-.95-.58-.95-1.48a5.09 5.09 0 0 1 1.64-3.9A2.54 2.54 0 0 1 25 89a2.15 2.15 0 0 1 1.25.35l.23-.35h.62s-.3 1.3-.59 2.68zm-1.63-2a1.55 1.55 0 0 0-1.13.53 5 5 0 0 0-1 3.08c0 .59.22.67.47.67a2.2 2.2 0 0 0 1.43-.8 4.21 4.21 0 0 0 1-1.55L26 90a1.74 1.74 0 0 0-1.12-.31zm4 5.07h-.94l.92-5.68h.94zm.72-7.4a.53.53 0 0 1-.54-.58.74.74 0 0 1 .73-.81c.36 0 .52.25.52.6a.73.73 0 0 1-.71.79zm5.19 2.93a1.12 1.12 0 0 0-.73-.36c-.67 0-1.44.86-1.92 2.54-.09.31-.39 2.29-.39 2.29h-.94c.11-.91.76-4.19.9-5.68h1c-.08.67-.32 1.66-.32 1.66.52-1.1 1.34-1.75 2-1.75a1 1 0 0 1 .87.48zM40.53 92a10.31 10.31 0 0 1-1.75.43 2.64 2.64 0 0 0 0 .44c0 .74.29 1.16 1 1.16A3.5 3.5 0 0 0 42 93l.4.66a4.46 4.46 0 0 1-2.77 1.18c-1 0-1.79-.45-1.79-1.9 0-1.92 1-4 3.08-4 .86 0 1.49.42 1.49 1.21s-.69 1.41-1.88 1.85zm.18-2.3c-.69 0-1.5.59-1.82 2a6.42 6.42 0 0 0 1.26-.31c.68-.23 1.25-.49 1.25-1.13 0-.45-.35-.57-.69-.57zm6.58 5.05a3.2 3.2 0 0 1-.64 0c.27-2 .73-3.88.73-4.45 0-.3 0-.42-.31-.42-.91 0-2.19 1.43-2.45 2.37-.09.35-.45 2.55-.45 2.55h-.94c.11-.91.8-4.46 1-5.68h1c-.11.67-.33 1.64-.33 1.64S45.94 89 47.52 89c.63 0 .87.36.87.94s-.41 2.61-.65 4a2.71 2.71 0 0 0 1-.3l.3.62a3.08 3.08 0 0 1-1.75.49zM53.75 90a2.71 2.71 0 0 0-1.27-.28c-.68 0-1 .26-1 .71s.31.67 1 1.13c.42.27 1.24.78 1.24 1.63 0 1.16-.83 1.7-2.12 1.7a3.16 3.16 0 0 1-1.69-.51l.13-.93a3.05 3.05 0 0 0 1.69.65c.74 0 1.05-.22 1.05-.68s-.34-.77-1-1.17-1.21-.9-1.21-1.64c0-1.12.9-1.65 2-1.65a3 3 0 0 1 1.31.24zm3.68 2a10.08 10.08 0 0 1-1.74.43 2 2 0 0 0 0 .44c0 .74.3 1.16 1 1.16a3.46 3.46 0 0 0 2.19-1l.41.66a4.46 4.46 0 0 1-2.77 1.18c-1 0-1.8-.45-1.8-1.9 0-1.92 1-4 3.08-4 .86 0 1.5.42 1.5 1.21s-.67 1.38-1.87 1.82zm.19-2.3c-.69 0-1.5.59-1.82 2a6.42 6.42 0 0 0 1.26-.31c.67-.23 1.24-.49 1.24-1.13 0-.45-.3-.57-.68-.57zm9.97 5.05a3.2 3.2 0 0 1-.64 0c.28-2 .73-3.88.73-4.45 0-.3 0-.42-.31-.42-1 0-2.21 1.62-2.39 2.23-.19 1-.38 2.06-.46 2.69h-1c.27-2 .74-3.93.74-4.5 0-.3 0-.42-.31-.42-.91 0-2.19 1.43-2.45 2.37-.09.35-.45 2.55-.45 2.55h-.94c.1-.91.79-4.46 1-5.68h1c-.1.67-.32 1.64-.32 1.64S62.84 89 64.43 89c.62 0 .85.36.85.94 0 .19-.1.78-.1.78S66.29 89 67.82 89c.63 0 .87.36.87.94s-.41 2.61-.65 4a2.79 2.79 0 0 0 1-.3l.29.62a3.08 3.08 0 0 1-1.74.49zm4.81.1a3.62 3.62 0 0 1-2.1-.65l1.47-8.68h.94l-.87 4.86a3 3 0 0 1 2.31-1.44c.87 0 1.48.65 1.48 2 0 2.14-1.01 3.91-3.23 3.91zm1.49-5c-1 0-2 1.08-2.37 2.38l-.28 1.53a2.47 2.47 0 0 0 1.31.37c1.42 0 2.09-1.28 2.09-3.07 0-.84-.28-1.24-.75-1.24zm3.71 4.9h-.93l1.48-9.23h.93zM82.25 92a10.08 10.08 0 0 1-1.74.43 2 2 0 0 0 0 .44c0 .74.3 1.16 1 1.16a3.47 3.47 0 0 0 2.2-1l.4.66a4.42 4.42 0 0 1-2.76 1.18c-1 0-1.8-.45-1.8-1.9 0-1.92 1-4 3.08-4 .86 0 1.5.42 1.5 1.21s-.68 1.38-1.88 1.82zm.18-2.3c-.69 0-1.49.59-1.82 2a6.24 6.24 0 0 0 1.26-.31c.68-.23 1.25-.49 1.25-1.13 0-.45-.35-.57-.69-.57zm7.31 5.17a3.78 3.78 0 0 1-1.24-.21l-.59 3.73H87l.78-4.75c.3-1.86.7-4.57.7-4.57h.94l-.22 1.34A3 3 0 0 1 91.49 89c.88 0 1.49.65 1.49 2 .02 1.71-.87 3.87-3.24 3.87zm1.48-5c-.93 0-2 1.06-2.34 2.36l-.26 1.57a2.13 2.13 0 0 0 1.26.35c1.37 0 2.11-1.4 2.11-3.07.01-.84-.29-1.25-.77-1.25zm5.33 4.98a2.28 2.28 0 0 1-2.46-2.55 3.07 3.07 0 0 1 3-3.35c1.14 0 2.42.42 2.42 2.52-.02 1.77-1.08 3.38-2.96 3.38zm.45-5.12c-.84 0-2 .7-2 2.65a1.52 1.52 0 0 0 1.6 1.72c.94 0 1.9-.86 1.9-2.67 0-1.21-.68-1.7-1.5-1.7zm7.47 5.06a1.91 1.91 0 0 1-.55-.05l.28-1.57a4.09 4.09 0 0 1-.78.89 3 3 0 0 1-1.9.79c-.62 0-.83-.39-.83-1s.48-3.24.74-4.82h.95c-.32 1.87-.71 3.94-.71 4.51 0 .3 0 .41.32.41.94 0 2.16-1.46 2.41-2.37.11-.46.45-2.55.45-2.55h.94l-.46 2.62C105 93.33 105 94 105 94a2.55 2.55 0 0 0 1-.3l.3.62a3.13 3.13 0 0 1-1.83.47zm6.67-4.51a1.15 1.15 0 0 0-.73-.36c-.68 0-1.44.86-1.92 2.54-.09.31-.39 2.29-.39 2.29h-.94c.1-.91.75-4.19.9-5.68h1c-.08.67-.31 1.66-.31 1.66.52-1.1 1.34-1.75 2-1.75a1 1 0 0 1 .87.48zm6.98 4.51a2 2 0 0 1-.56-.05l.29-1.57a4.09 4.09 0 0 1-.78.89 3 3 0 0 1-1.9.79c-.63 0-.83-.39-.83-1s.48-3.24.74-4.82h1c-.33 1.87-.72 3.94-.72 4.51 0 .3 0 .41.33.41.93 0 2.15-1.46 2.4-2.37.12-.46.46-2.55.46-2.55h.93l-.45 2.62a35.57 35.57 0 0 0-.38 2.27 2.56 2.56 0 0 0 1-.3l.29.62a3.08 3.08 0 0 1-1.82.55zm6.72-.04a3.15 3.15 0 0 1-.63 0c.27-2 .72-3.88.72-4.45 0-.3 0-.42-.31-.42-.91 0-2.18 1.43-2.44 2.37-.09.35-.46 2.55-.46 2.55h-.93c.1-.91.79-4.46 1-5.68h1c-.1.67-.32 1.64-.32 1.64s1.02-1.76 2.61-1.76c.62 0 .87.36.87.94s-.42 2.61-.65 4a2.71 2.71 0 0 0 1-.3l.3.62a3.13 3.13 0 0 1-1.76.49zm5.32-2.75a10.31 10.31 0 0 1-1.75.43 2.64 2.64 0 0 0 0 .44c0 .74.29 1.16 1 1.16a3.5 3.5 0 0 0 2.2-1l.4.66a4.46 4.46 0 0 1-2.77 1.18c-1 0-1.79-.45-1.79-1.9 0-1.92 1-4 3.08-4 .86 0 1.49.42 1.49 1.21s-.67 1.38-1.86 1.82zm.18-2.3c-.69 0-1.5.59-1.82 2a6.42 6.42 0 0 0 1.26-.31c.68-.23 1.25-.49 1.25-1.13-.03-.45-.35-.57-.69-.57zm8.71.3a2.73 2.73 0 0 0-1.28-.28c-.67 0-1.05.26-1.05.71s.31.67 1 1.13c.42.27 1.23.78 1.23 1.63 0 1.16-.83 1.7-2.11 1.7a3.16 3.16 0 0 1-1.69-.51l.13-.93a3.05 3.05 0 0 0 1.69.65c.74 0 1-.22 1-.68s-.34-.77-1-1.17-1.21-.9-1.21-1.64c0-1.12.89-1.65 2-1.65a3 3 0 0 1 1.31.24zm3.41 4.85A2.28 2.28 0 0 1 140 92.3a3.07 3.07 0 0 1 3-3.3c1.14 0 2.41.42 2.41 2.52-.02 1.72-1.07 3.33-2.95 3.33zm.45-5.12c-.84 0-1.95.7-1.95 2.65a1.52 1.52 0 0 0 1.55 1.72c.94 0 1.9-.86 1.9-2.67 0-1.21-.68-1.7-1.5-1.7zm7.91.4a2.78 2.78 0 0 0-1.41-.39c-1.44 0-2 1.85-2 3.12 0 .71.3 1.16 1 1.16a3.46 3.46 0 0 0 2.19-1l.41.66a4.46 4.46 0 0 1-2.77 1.18c-1 0-1.8-.45-1.8-1.9 0-2 1-4 3.06-4a3.35 3.35 0 0 1 1.53.34zm2 4.62h-.93l.92-5.68h.94zm.73-7.4a.53.53 0 0 1-.54-.58.74.74 0 0 1 .72-.81c.37 0 .52.25.52.6a.73.73 0 0 1-.7.79zm3.93 4.65a10.08 10.08 0 0 1-1.74.43 2 2 0 0 0 0 .44c0 .74.3 1.16 1 1.16a3.5 3.5 0 0 0 2.2-1l.4.66a4.46 4.46 0 0 1-2.77 1.18c-1 0-1.8-.45-1.8-1.9 0-1.92 1-4 3.09-4 .85 0 1.49.42 1.49 1.21s-.67 1.38-1.87 1.82zm.19-2.3c-.69 0-1.5.59-1.82 2a6.42 6.42 0 0 0 1.26-.31c.67-.23 1.25-.49 1.25-1.13 0-.45-.36-.57-.69-.57zm-.45-1.3-.49-.43 2.26-2 .65.51zm6.58 1.6h-1.69l-.36 2.07a9.16 9.16 0 0 0-.16 1.36c0 .46.22.59.53.59a2.26 2.26 0 0 0 1.22-.6v.83a2.7 2.7 0 0 1-1.67.6 1 1 0 0 1-1.08-1c0-.42.19-1.51.3-2.22l.26-1.56h-.88l.13-.77h.87l.46-1.44h.72l-.24 1.45h1.69zm3.3 2a10.08 10.08 0 0 1-1.74.43 2 2 0 0 0 0 .44c0 .74.3 1.16 1 1.16a3.46 3.46 0 0 0 2.19-1l.41.66a4.46 4.46 0 0 1-2.77 1.18c-1 0-1.8-.45-1.8-1.9 0-1.92 1-4 3.09-4 .85 0 1.49.42 1.49 1.21s-.67 1.38-1.87 1.82zm.19-2.3c-.69 0-1.5.59-1.82 2a6.42 6.42 0 0 0 1.26-.31c.67-.23 1.24-.49 1.24-1.13.03-.45-.35-.57-.68-.57zm-.45-1.3-.49-.43 2.26-2 .65.51zm12.91 6.35a3.15 3.15 0 0 1-.63 0c.27-2 .72-3.88.72-4.45 0-.3 0-.42-.31-.42-1 0-2.21 1.62-2.39 2.23-.18 1-.38 2.06-.46 2.69h-1c.27-2 .74-3.93.74-4.5 0-.3 0-.42-.31-.42-.91 0-2.19 1.43-2.45 2.37-.09.35-.45 2.55-.45 2.55h-.94c.11-.91.8-4.46 1-5.68h1c-.11.67-.33 1.64-.33 1.64S175 89 176.59 89c.63 0 .85.36.85.94 0 .19-.09.78-.09.78S178.45 89 180 89c.62 0 .87.36.87.94s-.42 2.61-.65 4a2.71 2.71 0 0 0 1-.3l.3.62a3.13 3.13 0 0 1-1.77.49zm5.31-2.75a10.08 10.08 0 0 1-1.74.43 2 2 0 0 0 0 .44c0 .74.3 1.16 1 1.16a3.46 3.46 0 0 0 2.19-1l.41.66a4.46 4.46 0 0 1-2.77 1.18c-1 0-1.8-.45-1.8-1.9 0-1.92 1-4 3.09-4 .85 0 1.49.42 1.49 1.21s-.67 1.38-1.87 1.82zm.19-2.3c-.69 0-1.5.59-1.82 2a6.42 6.42 0 0 0 1.26-.31c.67-.23 1.24-.49 1.24-1.13 0-.45-.35-.57-.68-.57zm3.51 5.05h-.93l.92-5.68h.94zm.73-7.4a.54.54 0 0 1-.55-.58.75.75 0 0 1 .73-.81c.37 0 .52.25.52.6a.73.73 0 0 1-.7.79zm2.17 7.4h-.94l1.48-9.23h.94zm2.87 0h-.93l1.48-9.23h.92zm4.65-2.75a10.31 10.31 0 0 1-1.75.43 2.64 2.64 0 0 0 0 .44c0 .74.3 1.16 1 1.16a3.5 3.5 0 0 0 2.2-1l.4.66a4.46 4.46 0 0 1-2.77 1.18c-1 0-1.79-.45-1.79-1.9 0-1.92 1-4 3.08-4 .86 0 1.49.42 1.49 1.21s-.67 1.38-1.86 1.82zm.18-2.3c-.69 0-1.5.59-1.82 2a6.42 6.42 0 0 0 1.26-.31c.68-.23 1.25-.49 1.25-1.13 0-.45-.35-.57-.69-.57zm6.49 5.09a1.91 1.91 0 0 1-.55-.05l.28-1.57a4.09 4.09 0 0 1-.78.89 3 3 0 0 1-1.9.79c-.62 0-.83-.39-.83-1s.48-3.24.74-4.82h.95c-.32 1.87-.71 3.94-.71 4.51 0 .3 0 .41.32.41.94 0 2.16-1.46 2.41-2.37.11-.46.45-2.55.45-2.55h.94l-.46 2.62a29.48 29.48 0 0 0-.37 2.27 2.55 2.55 0 0 0 1-.3l.3.62a3.13 3.13 0 0 1-1.79.55zm6.67-4.51a1.12 1.12 0 0 0-.73-.36c-.67 0-1.44.86-1.92 2.54-.09.31-.39 2.29-.39 2.29h-.94c.11-.91.76-4.19.9-5.68h1a16 16 0 0 1-.31 1.66c.52-1.1 1.34-1.75 2-1.75a1 1 0 0 1 .87.48zm3.21 1.72a10.31 10.31 0 0 1-1.74.43 2 2 0 0 0 0 .44c0 .74.3 1.16 1 1.16a3.5 3.5 0 0 0 2.2-1l.4.66a4.46 4.46 0 0 1-2.77 1.18c-1 0-1.79-.45-1.79-1.9 0-1.92 1-4 3.08-4 .86 0 1.49.42 1.49 1.21s-.68 1.38-1.87 1.82zm.18-2.3c-.69 0-1.5.59-1.82 2a6.42 6.42 0 0 0 1.26-.31c.68-.23 1.25-.49 1.25-1.13 0-.45-.35-.57-.69-.57z"/>
</svg>-->
<svg xmlns="http://www.w3.org/2000/svg" fill="none" viewBox="0 0 230 106">
    <path fill="#1D1D1B" d="M59.03 12.89H59.91V74.06H59.03V12.89Z"/>
    <path fill="#1D1D1B" fill-rule="evenodd"
          d="M45.1001 41.35C45.6323 42.4433 45.9005 43.6462 45.8831 44.8619C45.8658 46.0777 45.5633 47.2724 45.0001 48.35C43.8101 50.96 39.6901 52.97 39.2101 53.15C41.1161 53.3391 42.9226 54.0916 44.399 55.3116C45.8755 56.5317 46.9551 58.1639 47.5001 60C48.0669 61.883 48.1487 63.8788 47.7379 65.8018C47.327 67.7249 46.4369 69.513 45.1501 71C42.9601 73.3 40.3401 74.4 35.6201 74.31C32.4701 74.25 30.7301 73.99 27.6201 74.02C26.2701 74.02 25.3501 74.12 25.3501 74.12L25.2201 73C26.1301 72.79 27.4601 73.1 28.3001 71.78C28.6601 71.24 28.9001 67.53 28.9701 64.78C29.0601 61.31 29.1001 55.88 29.1001 55.88C29.1001 55.88 29.1001 49.88 28.9701 45.97C28.9701 45.35 28.9701 44.97 28.9101 44.39C28.8201 42.62 28.5801 39.85 28.5801 39.85C28.4501 39.15 28.5001 38.57 27.4801 38.09C26.573 37.7266 25.5946 37.5761 24.6201 37.65V36.72C27.7638 36.985 30.9233 37.005 34.0701 36.78C38.8901 36.46 43.2701 37.15 45.0701 41.3L45.1001 41.35ZM40.9201 41.43C41.6869 42.5208 42.1565 43.7924 42.2828 45.1197C42.409 46.447 42.1875 47.7843 41.6401 49C41.0688 50.1258 40.1936 51.069 39.1137 51.7229C38.0339 52.3769 36.7925 52.7153 35.5301 52.7C34.9388 52.6993 34.3526 52.5908 33.8001 52.38L33.4701 54.25C34.2327 54.0105 35.0319 53.9089 35.8301 53.95C39.1401 53.95 40.9701 55.82 42.6701 58.55C43.5965 60.2296 44.0588 62.1255 44.0096 64.043C43.9604 65.9604 43.4014 67.8302 42.3901 69.46C40.3901 72.11 37.6801 72.87 34.3901 72.3C33.6955 72.2031 33.0206 71.9972 32.3901 71.69C32.3901 71.69 32.2401 65.89 32.1901 62.19C32.1101 56.13 32.1901 52.71 32.1901 46.65C32.1901 43.58 32.3001 38.76 32.3001 38.76C34.5638 38.226 36.9448 38.5427 38.9901 39.65C39.7347 40.1133 40.3749 40.7263 40.8701 41.45L40.9201 41.43Z"
          clip-rule="evenodd"/>
    <path fill="#1D1D1B"
          d="M30.6699 14.13C30.6552 13.9733 30.6732 13.8153 30.7231 13.6661C30.7729 13.5168 30.8533 13.3796 30.9592 13.2632C31.0651 13.1469 31.1942 13.0539 31.3381 12.9903C31.482 12.9267 31.6376 12.8938 31.7949 12.8938C31.9523 12.8938 32.1079 12.9267 32.2518 12.9903C32.3957 13.0539 32.5248 13.1469 32.6307 13.2632C32.7366 13.3796 32.817 13.5168 32.8668 13.6661C32.9166 13.8153 32.9347 13.9733 32.9199 14.13C32.8935 14.41 32.7636 14.6702 32.5555 14.8595C32.3475 15.0489 32.0763 15.1538 31.7949 15.1538C31.5136 15.1538 31.2424 15.0489 31.0344 14.8595C30.8263 14.6702 30.6964 14.41 30.6699 14.13ZM28.1599 14.32C28.1599 14.0985 28.2256 13.8819 28.3487 13.6977C28.4718 13.5136 28.6467 13.37 28.8513 13.2852C29.056 13.2005 29.2812 13.1783 29.4984 13.2215C29.7157 13.2647 29.9153 13.3714 30.0719 13.528C30.2285 13.6847 30.3352 13.8842 30.3784 14.1015C30.4216 14.3187 30.3995 14.5439 30.3147 14.7486C30.2299 14.9532 30.0864 15.1282 29.9022 15.2512C29.718 15.3743 29.5015 15.44 29.2799 15.44C28.9829 15.44 28.698 15.322 28.488 15.1119C28.2779 14.9019 28.1599 14.617 28.1599 14.32ZM27.0699 18.58C27.0699 18.3585 27.1356 18.1419 27.2587 17.9577C27.3818 17.7736 27.5567 17.63 27.7613 17.5452C27.966 17.4605 28.1912 17.4383 28.4084 17.4815C28.6257 17.5247 28.8253 17.6314 28.9819 17.788C29.1385 17.9447 29.2452 18.1442 29.2884 18.3615C29.3316 18.5787 29.3095 18.8039 29.2247 19.0086C29.1399 19.2132 28.9964 19.3882 28.8122 19.5112C28.628 19.6343 28.4115 19.7 28.1899 19.7C28.0429 19.7 27.8972 19.671 27.7613 19.6147C27.6255 19.5584 27.502 19.4759 27.398 19.3719C27.294 19.2679 27.2115 19.1445 27.1552 19.0086C27.0989 18.8727 27.0699 18.7271 27.0699 18.58ZM26.5099 16.18C26.508 15.9561 26.5725 15.7366 26.6955 15.5495C26.8185 15.3623 26.9942 15.216 27.2005 15.1289C27.4068 15.0418 27.6343 15.018 27.8542 15.0605C28.0741 15.103 28.2763 15.2098 28.4354 15.3674C28.5944 15.525 28.703 15.7264 28.7474 15.9458C28.7919 16.1653 28.7701 16.393 28.6848 16.6001C28.5996 16.8071 28.4548 16.9842 28.2688 17.1088C28.0827 17.2334 27.8639 17.3 27.6399 17.3C27.342 17.3 27.0561 17.1823 26.8444 16.9726C26.6328 16.7628 26.5126 16.4779 26.5099 16.18ZM24.1799 15.13C24.1799 14.9085 24.2456 14.6919 24.3687 14.5077C24.4918 14.3236 24.6667 14.18 24.8713 14.0952C25.076 14.0105 25.3012 13.9883 25.5184 14.0315C25.7357 14.0747 25.9353 14.1814 26.0919 14.338C26.2485 14.4947 26.3552 14.6942 26.3984 14.9115C26.4416 15.1287 26.4195 15.3539 26.3347 15.5586C26.2499 15.7632 26.1064 15.9382 25.9222 16.0612C25.738 16.1843 25.5215 16.25 25.2999 16.25C25.0029 16.25 24.718 16.132 24.508 15.9219C24.2979 15.7119 24.1799 15.427 24.1799 15.13ZM21.7999 16.08C21.798 15.8556 21.8628 15.6358 21.9862 15.4485C22.1096 15.2611 22.286 15.1147 22.4929 15.028C22.6998 14.9412 22.9278 14.918 23.1479 14.9613C23.368 15.0045 23.5703 15.1124 23.7289 15.271C23.8876 15.4296 23.9954 15.6319 24.0387 15.852C24.0819 16.0721 24.0587 16.3002 23.972 16.5071C23.8852 16.7139 23.7388 16.8903 23.5515 17.0137C23.3641 17.1371 23.1443 17.202 22.9199 17.2C22.6237 17.1974 22.3403 17.0785 22.1309 16.8691C21.9214 16.6596 21.8026 16.3762 21.7999 16.08ZM20.1899 18.11C20.1899 17.8885 20.2556 17.6719 20.3787 17.4877C20.5018 17.3036 20.6767 17.16 20.8813 17.0752C21.086 16.9905 21.3112 16.9683 21.5284 17.0115C21.7457 17.0547 21.9453 17.1614 22.1019 17.318C22.2585 17.4747 22.3652 17.6742 22.4084 17.8915C22.4516 18.1087 22.4295 18.3339 22.3447 18.5386C22.2599 18.7432 22.1164 18.9182 21.9322 19.0412C21.748 19.1643 21.5315 19.23 21.3099 19.23C21.0137 19.2274 20.7303 19.1085 20.5209 18.8991C20.3114 18.6896 20.1926 18.4062 20.1899 18.11ZM20.3899 20.67C20.388 20.4456 20.4528 20.2258 20.5762 20.0385C20.6996 19.8511 20.876 19.7047 21.0829 19.618C21.2898 19.5312 21.5178 19.508 21.7379 19.5513C21.958 19.5945 22.1603 19.7024 22.3189 19.861C22.4776 20.0196 22.5854 20.2219 22.6287 20.442C22.6719 20.6621 22.6487 20.8902 22.562 21.0971C22.4752 21.3039 22.3288 21.4803 22.1415 21.6037C21.9541 21.7271 21.7343 21.792 21.5099 21.79C21.2137 21.7874 20.9303 21.6685 20.7209 21.4591C20.5114 21.2496 20.3926 20.9662 20.3899 20.67ZM26.3999 31C26.3999 30.24 30.6099 29.62 35.7999 29.62C40.9899 29.62 45.2099 30.24 45.2099 31C45.2099 31.76 40.9999 32.36 35.7999 32.36C30.5999 32.36 26.3999 31.75 26.3999 30.99V31ZM35.7799 14.68C35.308 14.6861 34.8503 14.5182 34.4943 14.2083C34.1383 13.8984 33.9089 13.4683 33.8499 13C34.4566 12.7326 35.118 12.6127 35.7799 12.65C36.4452 12.6119 37.11 12.7318 37.7199 13C37.6584 13.4673 37.4262 13.8953 37.0681 14.2018C36.7099 14.5082 36.2511 14.6714 35.7799 14.66V14.68ZM38.5899 14.09C38.5899 13.8685 38.6556 13.6519 38.7787 13.4677C38.9018 13.2836 39.0767 13.14 39.2813 13.0552C39.486 12.9705 39.7112 12.9483 39.9284 12.9915C40.1457 13.0347 40.3453 13.1414 40.5019 13.298C40.6585 13.4547 40.7652 13.6542 40.8084 13.8715C40.8516 14.0887 40.8295 14.3139 40.7447 14.5186C40.6599 14.7232 40.5164 14.8982 40.3322 15.0212C40.148 15.1443 39.9315 15.21 39.7099 15.21C39.4129 15.21 39.128 15.092 38.918 14.8819C38.7079 14.6719 38.5899 14.387 38.5899 14.09ZM41.0899 14.26C41.088 14.0357 41.1528 13.8158 41.2762 13.6285C41.3996 13.4411 41.576 13.2947 41.7829 13.208C41.9898 13.1212 42.2178 13.098 42.4379 13.1413C42.658 13.1845 42.8603 13.2924 43.0189 13.451C43.1776 13.6096 43.2854 13.8119 43.3287 14.032C43.372 14.2521 43.3487 14.4802 43.262 14.6871C43.1752 14.8939 43.0288 15.0703 42.8415 15.1937C42.6541 15.3171 42.4343 15.382 42.2099 15.38C41.9129 15.38 41.628 15.262 41.418 15.0519C41.2079 14.8419 41.0899 14.557 41.0899 14.26ZM42.7499 16.1C42.7499 15.8785 42.8156 15.6619 42.9387 15.4777C43.0618 15.2936 43.2367 15.15 43.4413 15.0652C43.646 14.9805 43.8712 14.9583 44.0884 15.0015C44.3057 15.0447 44.5053 15.1514 44.6619 15.308C44.8185 15.4647 44.9252 15.6642 44.9684 15.8815C45.0116 16.0987 44.9895 16.3239 44.9047 16.5286C44.8199 16.7332 44.6764 16.9082 44.4922 17.0312C44.308 17.1543 44.0915 17.22 43.8699 17.22C43.5729 17.22 43.288 17.102 43.078 16.8919C42.8679 16.6819 42.7499 16.397 42.7499 16.1ZM45.0699 15C45.0699 14.7785 45.1356 14.5619 45.2587 14.3777C45.3818 14.1936 45.5567 14.05 45.7613 13.9652C45.966 13.8805 46.1912 13.8583 46.4084 13.9015C46.6257 13.9447 46.8253 14.0514 46.9819 14.208C47.1385 14.3647 47.2452 14.5642 47.2884 14.7815C47.3316 14.9987 47.3095 15.2239 47.2247 15.4286C47.1399 15.6332 46.9964 15.8082 46.8122 15.9312C46.628 16.0543 46.4115 16.12 46.1899 16.12C45.8929 16.12 45.608 16.002 45.398 15.7919C45.1879 15.5819 45.0699 15.297 45.0699 15ZM42.1999 18.5C42.1999 18.2785 42.2656 18.0619 42.3887 17.8777C42.5118 17.6936 42.6867 17.55 42.8913 17.4652C43.096 17.3805 43.3212 17.3583 43.5384 17.4015C43.7557 17.4447 43.9553 17.5514 44.1119 17.708C44.2685 17.8647 44.3752 18.0642 44.4184 18.2815C44.4616 18.4987 44.4395 18.7239 44.3547 18.9286C44.2699 19.1332 44.1264 19.3082 43.9422 19.4312C43.758 19.5543 43.5415 19.62 43.3199 19.62C43.0229 19.62 42.738 19.502 42.528 19.2919C42.3179 19.0819 42.1999 18.797 42.1999 18.5ZM47.4699 16C47.4964 15.7199 47.6263 15.4598 47.8344 15.2704C48.0424 15.0811 48.3136 14.9762 48.5949 14.9762C48.8763 14.9762 49.1475 15.0811 49.3555 15.2704C49.5636 15.4598 49.6935 15.7199 49.7199 16C49.7347 16.1566 49.7166 16.3146 49.6668 16.4639C49.617 16.6132 49.5366 16.7504 49.4307 16.8667C49.3248 16.9831 49.1957 17.0761 49.0518 17.1397C48.9079 17.2033 48.7523 17.2362 48.5949 17.2362C48.4376 17.2362 48.282 17.2033 48.1381 17.1397C47.9942 17.0761 47.8651 16.9831 47.7592 16.8667C47.6533 16.7504 47.5729 16.6132 47.5231 16.4639C47.4732 16.3146 47.4552 16.1566 47.4699 16ZM49.1199 18C49.1199 17.7785 49.1856 17.5619 49.3087 17.3777C49.4318 17.1936 49.6067 17.05 49.8113 16.9652C50.016 16.8805 50.2412 16.8583 50.4584 16.9015C50.6757 16.9447 50.8753 17.0514 51.0319 17.208C51.1885 17.3647 51.2952 17.5642 51.3384 17.7815C51.3816 17.9987 51.3595 18.2239 51.2747 18.4286C51.1899 18.6332 51.0464 18.8082 50.8622 18.9312C50.678 19.0543 50.4615 19.12 50.2399 19.12C49.9429 19.12 49.658 19.002 49.448 18.7919C49.2379 18.5819 49.1199 18.297 49.1199 18ZM48.9299 20.53C48.9299 20.3085 48.9956 20.0919 49.1187 19.9077C49.2418 19.7236 49.4167 19.58 49.6213 19.4952C49.826 19.4105 50.0512 19.3883 50.2684 19.4315C50.4857 19.4747 50.6853 19.5814 50.8419 19.738C50.9985 19.8947 51.1052 20.0942 51.1484 20.3115C51.1916 20.5287 51.1695 20.7539 51.0847 20.9586C50.9999 21.1632 50.8564 21.3382 50.6722 21.4612C50.488 21.5843 50.2715 21.65 50.0499 21.65C49.7529 21.65 49.468 21.532 49.258 21.3219C49.0479 21.1119 48.9299 20.827 48.9299 20.53Z"/>
    <path fill="#1D1D1B" fill-rule="evenodd"
          d="M37.71 12.31C37.6433 12.0102 37.5086 11.7297 37.3161 11.4904C37.1236 11.2511 36.8785 11.0593 36.6 10.93L36.07 9.99999L36.16 9.88999L37.04 10.34V8.88999L36.19 9.34999L36.07 9.22999L36.6 8.35999H35L35.52 9.21999L35.4 9.34999L34.55 8.88999V10.32L35.43 9.85999L35.53 9.97999L35 10.92C34.7203 11.0503 34.4745 11.2436 34.2819 11.4848C34.0894 11.7259 33.9552 12.0084 33.89 12.31C33.89 12.31 34 12 35.27 12V11C35.4357 10.9522 35.6075 10.9286 35.78 10.93C35.9525 10.9281 36.1244 10.9516 36.29 11V12C37.6 12 37.71 12.35 37.71 12.35V12.31ZM35.78 18.92C35.3389 18.8895 34.8962 18.9508 34.48 19.1C34.5565 17.4697 34.0535 15.8649 33.06 14.57C33.01 14.2 33.58 13.99 33.58 13.99C33.7985 14.3841 34.1182 14.7127 34.5062 14.9419C34.8943 15.171 35.3364 15.2924 35.7871 15.2934C36.2377 15.2944 36.6804 15.1751 37.0694 14.9477C37.4585 14.7203 37.7797 14.3931 38 14C38 14 38.57 14.21 38.52 14.58C37.5265 15.8749 37.0235 17.4797 37.1 19.11C36.684 18.9597 36.2411 18.8983 35.8 18.93L35.78 18.92Z"
          clip-rule="evenodd"/>
    <path fill="#1D1D1B"
          d="M35.7799 19.32C35.9996 19.288 36.2235 19.3026 36.4372 19.3629C36.6508 19.4232 36.8494 19.5278 37.0199 19.67C37.0199 20.23 36.7699 20.31 36.5699 20.51C36.5045 20.5891 36.4595 20.683 36.4387 20.7835C36.4179 20.884 36.422 20.9881 36.4506 21.0867C36.4792 21.1852 36.5314 21.2753 36.6027 21.3491C36.6741 21.4229 36.7623 21.4781 36.8599 21.51C36.9949 21.5149 37.1287 21.4842 37.2481 21.421C37.3674 21.3579 37.4681 21.2644 37.5399 21.15C37.6499 20.99 37.6799 20.79 37.8799 20.76C38.0799 20.73 38.2599 21.08 38.3299 21.36C38.3999 21.64 38.1999 23.05 37.6199 22.94C37.2299 22.86 37.3999 22.39 36.9099 22.21C36.7987 22.1582 36.6776 22.1313 36.5549 22.1313C36.4322 22.1313 36.3111 22.1582 36.1999 22.21C35.8299 22.37 35.9799 23.21 36.1999 23.75C36.3043 24.0644 36.5265 24.3261 36.8199 24.48C37.8999 24.95 38.5999 22.75 38.7099 22.4C38.621 22.3458 38.5548 22.2613 38.5235 22.1619C38.4922 22.0626 38.4981 21.9554 38.5399 21.86C38.5644 21.7896 38.6068 21.7268 38.6629 21.6777C38.719 21.6286 38.7869 21.5949 38.8599 21.58C38.9658 21.5561 39.0767 21.5713 39.1723 21.6228C39.2678 21.6742 39.3416 21.7585 39.3799 21.86C39.4102 21.935 39.4188 22.0169 39.4046 22.0965C39.3905 22.1761 39.3542 22.2501 39.2999 22.31C39.2657 22.355 39.222 22.3918 39.1718 22.4178C39.1217 22.4437 39.0663 22.4581 39.0099 22.46C38.9299 22.94 38.7699 24.46 39.5899 24.72C39.9399 24.84 40.5299 24.4 40.8399 23.92C41.1499 23.44 41.5099 22.55 41.0099 22.42C40.9094 22.3763 40.7984 22.3624 40.6902 22.3801C40.582 22.3979 40.4812 22.4465 40.3999 22.52C40.0499 22.83 39.9499 23.17 39.6199 23.05C39.2899 22.93 39.5199 22.43 39.6199 22.05C39.7199 21.67 39.8999 20.93 40.2699 20.92C40.6399 20.91 40.5299 21.57 41.0499 21.71C41.1471 21.7266 41.247 21.7146 41.3375 21.6755C41.428 21.6365 41.5052 21.5721 41.5599 21.49C41.623 21.4068 41.6681 21.3114 41.6922 21.2098C41.7163 21.1082 41.7189 21.0027 41.6999 20.9C41.6999 20.6 41.4399 20.47 41.4499 20.16C41.4499 19.31 43.4499 19.63 43.6099 20.45C43.7099 20.87 42.4599 21.16 42.5599 21.85C42.5599 22.09 42.9099 22.04 43.1599 21.96C43.5999 21.83 43.5899 21.49 43.9699 21.43C44.7999 21.32 43.5799 23.96 43.1199 23.43C42.9599 23.23 43.0599 22.97 42.8599 22.81C42.7892 22.7514 42.7077 22.7072 42.6199 22.68C41.9899 22.47 41.5399 23.37 41.6199 24.02C41.6199 24.43 41.7299 24.83 42.1099 24.93C42.6599 25.07 43.6599 24.32 44.3299 23.13C44.2761 23.054 44.2472 22.9632 44.2472 22.87C44.2472 22.7769 44.2761 22.686 44.3299 22.61C44.3754 22.5389 44.4396 22.4817 44.5154 22.4447C44.5913 22.4077 44.6759 22.3922 44.7599 22.4C44.8187 22.4023 44.8763 22.4179 44.9282 22.4456C44.9802 22.4733 45.0252 22.5124 45.0599 22.56C45.1234 22.6357 45.1582 22.7313 45.1582 22.83C45.1582 22.9288 45.1234 23.0244 45.0599 23.1C45.0164 23.1665 44.9544 23.219 44.8816 23.2509C44.8088 23.2829 44.7283 23.293 44.6499 23.28C44.3999 23.83 43.6999 25.28 44.5299 25.51C44.9899 25.66 45.8599 24.99 45.9999 24.87C46.4099 24.49 47.1599 23.87 46.7599 23.64C46.3599 23.41 45.6899 24.26 45.2999 23.84C45.0499 23.59 45.3699 22.96 45.6699 22.5C45.8499 22.23 45.9399 21.96 46.2599 21.9C46.7799 21.8 46.5799 22.82 47.0899 22.97C48.0899 23.26 47.3699 21.48 48.2799 21.39C48.6799 21.39 48.9599 21.39 49.1299 21.73C49.183 21.9265 49.183 22.1335 49.1299 22.33C47.5758 23.7887 46.2298 25.4543 45.1299 27.28C44.7999 26.36 40.9699 25.68 35.7699 25.68C30.5699 25.68 26.6999 26.34 26.3699 27.26C25.3171 25.4077 23.9656 23.7419 22.3699 22.33C22.3168 22.1335 22.3168 21.9265 22.3699 21.73C22.5399 21.41 22.8199 21.35 23.2199 21.39C24.1299 21.48 23.3699 23.26 24.4099 22.97C24.9199 22.82 24.7199 21.8 25.2399 21.9C25.5599 21.96 25.6499 22.23 25.8299 22.5C26.1299 22.96 26.4499 23.59 26.2099 23.84C25.8099 24.26 25.2899 23.29 24.7399 23.64C24.1899 23.99 25.0899 24.49 25.5099 24.87C25.6399 24.99 26.5099 25.66 26.9699 25.51C27.7999 25.25 27.0999 23.83 26.8499 23.28C26.7715 23.2917 26.6915 23.2811 26.6189 23.2492C26.5464 23.2174 26.4843 23.1656 26.4399 23.1C26.3799 23.0228 26.3473 22.9278 26.3473 22.83C26.3473 22.7322 26.3799 22.6372 26.4399 22.56C26.4766 22.5122 26.5234 22.4731 26.577 22.4454C26.6306 22.4177 26.6896 22.4023 26.7499 22.4C26.8326 22.3918 26.9159 22.4071 26.9903 22.4443C27.0646 22.4815 27.1269 22.5389 27.1699 22.61C27.2237 22.686 27.2526 22.7769 27.2526 22.87C27.2526 22.9632 27.2237 23.054 27.1699 23.13C27.8299 24.32 28.8399 25.07 29.3799 24.93C29.9199 24.79 29.8399 24.43 29.8699 24.02C29.9299 23.37 29.4699 22.47 28.8699 22.68C28.7799 22.7091 28.6954 22.7531 28.6199 22.81C28.4199 22.97 28.5299 23.23 28.3599 23.43C27.8999 23.98 26.6799 21.34 27.5099 21.43C27.8899 21.49 27.8799 21.83 28.3299 21.96C28.5699 22.04 28.8899 22.09 28.9199 21.85C29.0199 21.16 27.7699 20.85 27.9199 20.45C28.1199 19.63 30.0299 19.31 30.0699 20.16C30.0699 20.47 29.8199 20.6 29.8199 20.9C29.7873 21.1074 29.8376 21.3193 29.9599 21.49C30.017 21.572 30.0962 21.6361 30.1882 21.675C30.2802 21.714 30.3813 21.7261 30.4799 21.71C30.9899 21.57 30.8199 20.9 31.2499 20.92C31.6799 20.94 31.7999 21.55 31.9099 22.05C32.0199 22.55 32.0899 22.98 31.9099 23.05C31.7299 23.12 31.4899 22.83 31.1399 22.52C31.0586 22.4465 30.9578 22.3979 30.8496 22.3801C30.7414 22.3624 30.6304 22.3763 30.5299 22.42C30.0199 22.55 30.3799 23.42 30.6999 23.92C31.0199 24.42 31.5999 24.84 31.9399 24.72C32.7699 24.43 32.5999 22.94 32.5199 22.46C32.4649 22.4581 32.411 22.4436 32.3625 22.4176C32.3139 22.3916 32.272 22.3548 32.2399 22.31C32.1822 22.2522 32.1436 22.178 32.1293 22.0976C32.115 22.0171 32.1257 21.9342 32.1599 21.86C32.1963 21.7593 32.2681 21.6752 32.362 21.6237C32.4559 21.5721 32.5654 21.5566 32.6699 21.58C32.7575 21.5983 32.8376 21.6422 32.9001 21.7063C32.9626 21.7703 33.0046 21.8516 33.0207 21.9396C33.0368 22.0276 33.0263 22.1184 32.9905 22.2004C32.9548 22.2824 32.8953 22.3519 32.8199 22.4C32.9299 22.75 33.6399 24.95 34.7099 24.48C35.0032 24.3261 35.2255 24.0644 35.3299 23.75C35.5899 23.21 35.7399 22.37 35.3299 22.21C35.2187 22.1582 35.0976 22.1313 34.9749 22.1313C34.8522 22.1313 34.7311 22.1582 34.6199 22.21C34.1299 22.39 34.2999 22.86 33.9099 22.94C33.3299 23.05 33.1199 21.67 33.1999 21.36C33.2799 21.05 33.3599 20.7 33.6499 20.76C33.9399 20.82 33.8799 20.99 33.9899 21.15C34.0617 21.2644 34.1624 21.3579 34.2817 21.421C34.4011 21.4842 34.5349 21.5149 34.6699 21.51C34.769 21.4802 34.8592 21.4261 34.932 21.3525C35.0049 21.279 35.0581 21.1884 35.087 21.0889C35.1158 20.9895 35.1193 20.8844 35.0971 20.7833C35.0749 20.6822 35.0277 20.5882 34.9599 20.51C34.7699 20.31 34.5099 20.23 34.5099 19.67C34.6804 19.5278 34.8789 19.4232 35.0926 19.3629C35.3063 19.3026 35.5302 19.288 35.7499 19.32H35.7799Z"/>
    <path fill="#1D1D1B" fill-rule="evenodd"
          d="M35.78 26.43L33.9 27.54L35.78 28.66L37.67 27.53L35.78 26.43ZM42.23 28.73L39.31 28.38V26.93L42.23 27.25V28.73ZM43.45 28.26L44.59 28L45.35 29.18L44.64 29.54L43.45 28.26ZM29.33 28.73L32.26 28.38V26.93L29.33 27.25V28.73ZM28.11 28.26L27 28L26.23 29.18L26.94 29.54L28.13 28.26H28.11ZM35.78 26.26C40.98 26.26 45.21 26.78 45.04 27.94C45.04 28.26 45.34 28.63 45.83 29.28C45.6 29.51 44.94 29.52 45.02 30.15C44.3 29.42 39.44 29 35.78 29C32.12 29 27.26 29.44 26.55 30.16C26.63 29.53 25.96 29.52 25.74 29.29C26.22 28.64 26.52 28.29 26.52 27.95C26.36 26.79 30.58 26.27 35.78 26.27V26.26Z"
          clip-rule="evenodd"/>
    <path fill="#1D1D1B"
          d="M11.9099 12.89H12.7899V74.06H11.9099V12.89ZM73.2099 44.65V50.05H71.6099V37.93H78.5199V39.3H73.2099V43.3H78.5199V44.65H73.2099ZM84.7799 50.21C83.6912 50.2007 82.6508 49.7593 81.8875 48.9829C81.1242 48.2065 80.7006 47.1587 80.7099 46.07C80.7192 44.9813 81.1606 43.9409 81.937 43.1776C82.7134 42.4143 83.7612 41.9907 84.8499 42C85.3932 41.971 85.9364 42.0587 86.4429 42.2572C86.9494 42.4556 87.4076 42.7603 87.7866 43.1506C88.1656 43.541 88.4565 44.0079 88.6399 44.5201C88.8234 45.0323 88.895 45.5778 88.8499 46.12C88.8817 46.6637 88.7983 47.208 88.6052 47.7172C88.4122 48.2265 88.1138 48.6893 87.7297 49.0753C87.3455 49.4614 86.8842 49.762 86.3759 49.9575C85.8676 50.153 85.3237 50.2391 84.7799 50.21ZM84.7799 43.12C84.4268 43.1231 84.0784 43.2007 83.7573 43.3476C83.4362 43.4946 83.1498 43.7076 82.9167 43.9728C82.6836 44.238 82.509 44.5494 82.4045 44.8867C82.2999 45.2239 82.2677 45.5795 82.3099 45.93C82.3099 47.62 83.1399 49.11 85.0099 49.11C86.6299 49.11 87.3499 47.82 87.3499 46.27C87.3199 44.45 86.3499 43.12 84.7499 43.12H84.7799ZM96.9399 50.05V44.88C96.9617 44.6531 96.9318 44.4242 96.8525 44.2105C96.7732 43.9968 96.6465 43.8038 96.482 43.646C96.3175 43.4882 96.1194 43.3697 95.9025 43.2994C95.6857 43.2291 95.4557 43.2088 95.2299 43.24C94.5512 43.2189 93.8875 43.4425 93.3599 43.87V50.05H91.8599V42.18H93.3599V43C94.0795 42.4131 94.9635 42.0637 95.8899 42C96.2224 41.9734 96.5567 42.0187 96.8701 42.133C97.1835 42.2473 97.4685 42.4278 97.7058 42.6622C97.9431 42.8967 98.127 43.1795 98.2451 43.4915C98.3631 43.8035 98.4125 44.1372 98.3899 44.47C98.4599 45.67 98.3899 50.03 98.3899 50.03L96.9399 50.05ZM107.07 50.05V49.33C106.415 49.8933 105.574 50.1927 104.71 50.17C102.77 50.17 101.35 48.61 101.35 46.32C101.308 45.7615 101.383 45.2004 101.572 44.673C101.76 44.1455 102.057 43.6635 102.444 43.2582C102.83 42.8528 103.297 42.5331 103.815 42.3199C104.333 42.1066 104.89 42.0044 105.45 42.02C106.002 42.0092 106.551 42.1007 107.07 42.29V37.29H108.56V50.05H107.07ZM107.07 43.53C106.595 43.2209 106.037 43.064 105.47 43.08C104.21 43.08 102.89 43.75 102.89 46.08C102.89 47.97 103.78 49.08 105.47 49.08C106.059 49.0669 106.626 48.8475 107.07 48.46V43.53ZM116.86 50.17C116.05 50.17 115.73 49.27 115.73 49.27C115.181 49.8239 114.448 50.1582 113.67 50.21C113.386 50.2264 113.101 50.1844 112.833 50.0867C112.566 49.9891 112.321 49.8377 112.114 49.642C111.907 49.4462 111.742 49.2103 111.63 48.9485C111.517 48.6868 111.459 48.4049 111.46 48.12C111.478 47.5673 111.687 47.0379 112.052 46.6221C112.417 46.2064 112.914 45.93 113.46 45.84C114.194 45.6262 114.948 45.4855 115.71 45.42V44.85C115.778 44.4297 115.689 43.9988 115.46 43.64C115.297 43.482 115.102 43.3616 114.888 43.2873C114.673 43.213 114.445 43.1866 114.22 43.21C113.37 43.2294 112.557 43.5563 111.93 44.13L111.66 43.03C112.555 42.44 113.59 42.0952 114.66 42.03C116.29 42.03 117.08 42.89 117.08 43.96C117.08 45.52 117.01 47.03 117.01 47.81C117.01 48.74 117.18 49.1 117.72 49.1C117.993 49.0972 118.262 49.0358 118.51 48.92V49.72C117.994 49.976 117.434 50.1289 116.86 50.17ZM114.3 46.5C113.55 46.7 112.92 47.13 112.92 47.82C112.917 47.9989 112.951 48.1766 113.02 48.3416C113.089 48.5067 113.192 48.6556 113.322 48.7788C113.451 48.902 113.605 48.9968 113.774 49.0573C113.942 49.1178 114.121 49.1425 114.3 49.13C114.557 49.1144 114.808 49.047 115.038 48.9319C115.269 48.8167 115.473 48.6562 115.64 48.46V46.27C115.187 46.3014 114.738 46.3784 114.3 46.5ZM122.73 50.21C122.388 50.2438 122.044 50.1642 121.751 49.9836C121.458 49.8029 121.233 49.5311 121.11 49.21C120.918 48.456 120.851 47.6758 120.91 46.9V43.46H119.67V42.36H121L121.47 40.44H122.47V42.38H124.8V43.38H122.4C122.4 43.38 122.4 44.87 122.35 46.31C122.311 46.9787 122.348 47.6496 122.46 48.31C122.501 48.4891 122.605 48.647 122.755 48.7539C122.904 48.8608 123.087 48.9093 123.27 48.89C123.859 48.8449 124.416 48.6017 124.85 48.2L125.03 49.2C124.4 49.7877 123.589 50.1438 122.73 50.21ZM128.4 39.88C128.202 39.88 128.009 39.8214 127.844 39.7115C127.68 39.6016 127.552 39.4454 127.476 39.2627C127.4 39.08 127.381 38.8789 127.419 38.6849C127.458 38.4909 127.553 38.3128 127.693 38.1729C127.833 38.0331 128.011 37.9378 128.205 37.8992C128.399 37.8606 128.6 37.8804 128.783 37.9561C128.965 38.0318 129.122 38.16 129.231 38.3244C129.341 38.4889 129.4 38.6822 129.4 38.88C129.4 39.1452 129.295 39.3996 129.107 39.5871C128.919 39.7747 128.665 39.88 128.4 39.88ZM127.68 50.05V42.18H129.17V50.05H127.68ZM136.12 50.21C135.069 50.1498 134.081 49.6876 133.361 48.919C132.642 48.1505 132.245 47.1345 132.254 46.0817C132.263 45.0288 132.677 44.0198 133.41 43.2637C134.142 42.5075 135.138 42.0622 136.19 42.02C136.733 41.991 137.276 42.0787 137.783 42.2772C138.289 42.4756 138.748 42.7803 139.127 43.1706C139.506 43.561 139.797 44.0279 139.98 44.5401C140.163 45.0523 140.235 45.5978 140.19 46.14C140.219 46.6821 140.133 47.2241 139.939 47.731C139.745 48.2378 139.446 48.6981 139.062 49.082C138.678 49.4658 138.218 49.7646 137.711 49.959C137.204 50.1533 136.662 50.2388 136.12 50.21ZM136.12 43.12C134.5 43.12 133.66 44.4 133.66 45.93C133.66 47.62 134.49 49.11 136.36 49.11C137.98 49.11 138.7 47.82 138.7 46.27C138.66 44.45 137.69 43.12 136.08 43.12H136.12ZM148.27 50.05V44.88C148.19 43.8 147.71 43.24 146.56 43.24C145.878 43.22 145.212 43.4433 144.68 43.87V50.05H143.19V42.18H144.68V43C145.421 42.4237 146.322 42.0918 147.26 42.05C147.592 42.0251 147.926 42.0716 148.238 42.1865C148.551 42.3013 148.835 42.4819 149.072 42.716C149.309 42.9501 149.493 43.2322 149.612 43.5434C149.73 43.8546 149.781 44.1876 149.76 44.52C149.83 45.72 149.76 50.08 149.76 50.08L148.27 50.05ZM81.5399 74C81.2427 74.0763 80.9368 74.1133 80.6299 74.11C80.1883 74.1295 79.7536 73.9952 79.3999 73.73C78.6407 73.1319 77.9408 72.4622 77.3099 71.73C76.4699 70.8 75.2099 69.19 75.2099 69.19H73.2099V74.19H71.6099V61.93H74.6099C75.6008 61.8694 76.5911 62.0585 77.4899 62.48C77.982 62.7333 78.3913 63.1222 78.6694 63.6006C78.9476 64.079 79.0831 64.6271 79.0599 65.18C79.0665 65.9259 78.8476 66.6563 78.4318 67.2755C78.016 67.8948 77.4228 68.3739 76.7299 68.65C76.7299 68.65 77.6699 69.82 78.7299 70.94C79.2528 71.5238 79.8177 72.0685 80.4199 72.57C81.1699 73.19 81.6399 73.06 81.6399 73.06L81.5399 74ZM76.6499 63.61C76.029 63.1724 75.2784 62.9575 74.5199 63H73.2099V68C73.688 68.0551 74.1687 68.0851 74.6499 68.09C75.0194 68.1294 75.393 68.0856 75.7433 67.9619C76.0937 67.8381 76.4119 67.6375 76.6747 67.3747C76.9374 67.112 77.138 66.7938 77.2618 66.4435C77.3855 66.0931 77.4293 65.7195 77.3899 65.35C77.4016 65.0235 77.3413 64.6984 77.2135 64.3977C77.0856 64.097 76.8932 63.8281 76.6499 63.61ZM87.3099 74.21C86.2212 74.2007 85.1808 73.7593 84.4175 72.9829C83.6542 72.2065 83.2306 71.1587 83.2399 70.07C83.2492 68.9813 83.6906 67.9409 84.467 67.1776C85.2434 66.4143 86.2912 65.9907 87.3799 66C87.9236 65.9693 88.4675 66.0559 88.9748 66.2538C89.4822 66.4517 89.941 66.7563 90.3203 67.147C90.6997 67.5377 90.9906 68.0053 91.1734 68.5183C91.3562 69.0312 91.4266 69.5775 91.3799 70.12C91.4116 70.6637 91.3283 71.208 91.1352 71.7172C90.9422 72.2265 90.6438 72.6893 90.2597 73.0753C89.8755 73.4614 89.4142 73.762 88.9059 73.9575C88.3976 74.153 87.8537 74.2391 87.3099 74.21ZM87.3099 67.12C86.9568 67.1231 86.6084 67.2007 86.2873 67.3476C85.9662 67.4946 85.6798 67.7076 85.4467 67.9728C85.2136 68.238 85.039 68.5494 84.9345 68.8867C84.8299 69.2239 84.7977 69.5795 84.8399 69.93C84.8399 71.62 85.6699 73.11 87.5399 73.11C89.1599 73.11 89.8799 71.82 89.8799 70.27C89.8399 68.45 88.8699 67.12 87.2699 67.12H87.3099ZM94.9999 63.88C94.8021 63.88 94.6088 63.8214 94.4443 63.7115C94.2799 63.6016 94.1517 63.4454 94.076 63.2627C94.0003 63.08 93.9805 62.8789 94.0191 62.6849C94.0577 62.4909 94.1529 62.3128 94.2928 62.1729C94.4327 62.0331 94.6108 61.9378 94.8048 61.8992C94.9988 61.8606 95.1999 61.8804 95.3826 61.9561C95.5653 62.0318 95.7215 62.16 95.8314 62.3244C95.9413 62.4889 95.9999 62.6822 95.9999 62.88C95.9999 63.1452 95.8946 63.3996 95.707 63.5871C95.5195 63.7747 95.2651 63.88 94.9999 63.88ZM94.2799 74.05V66.18H95.7699V74.05H94.2799ZM107.61 74.07H104.17V61.93H107.36C109.66 61.93 111.36 62.69 111.36 64.8C111.341 65.3679 111.167 65.9198 110.857 66.3958C110.547 66.8718 110.112 67.2537 109.6 67.5C109.6 67.5 112.26 68.02 112.26 70.43C112.27 73.09 110.09 74.07 107.61 74.07ZM107.16 63H105.77V67.07H107.07C109 67.07 109.64 66.07 109.64 64.89C109.64 63.71 108.73 63 107.16 63ZM109.5 68.75C108.739 68.3467 107.878 68.1697 107.02 68.24H105.77V72.79C106.389 72.8831 107.015 72.9199 107.64 72.9C109.19 72.9 110.51 72.27 110.51 70.58C110.514 70.215 110.423 69.8552 110.246 69.5361C110.069 69.2169 109.812 68.9494 109.5 68.76V68.75ZM120.17 74.17C119.36 74.17 119.04 73.27 119.04 73.27C118.495 73.8248 117.766 74.1595 116.99 74.21C116.705 74.2278 116.419 74.1869 116.15 74.0898C115.881 73.9928 115.635 73.8417 115.427 73.6458C115.219 73.4499 115.054 73.2135 114.94 72.951C114.827 72.6886 114.769 72.4058 114.77 72.12C114.788 71.5673 114.997 71.0379 115.362 70.6221C115.727 70.2064 116.224 69.93 116.77 69.84C117.504 69.6262 118.258 69.4855 119.02 69.42V68.85C119.088 68.4297 118.999 67.9988 118.77 67.64C118.607 67.482 118.412 67.3616 118.198 67.2873C117.983 67.213 117.755 67.1866 117.53 67.21C116.68 67.2294 115.867 67.5563 115.24 68.13L115 67C115.895 66.41 116.93 66.0652 118 66C119.63 66 120.43 66.86 120.43 67.93C120.43 69.49 120.35 71 120.35 71.78C120.35 72.71 120.52 73.07 121.06 73.07C121.333 73.0691 121.603 73.0077 121.85 72.89V73.69C121.327 73.9602 120.756 74.1234 120.17 74.17ZM117.62 70.5C116.86 70.7 116.23 71.13 116.23 71.82C116.227 71.9998 116.261 72.1784 116.331 72.3442C116.4 72.51 116.504 72.6593 116.635 72.7827C116.766 72.9061 116.921 73.0007 117.091 73.0605C117.26 73.1203 117.441 73.144 117.62 73.13C117.875 73.1131 118.124 73.0451 118.353 72.93C118.581 72.8149 118.784 72.6551 118.95 72.46V70.27C118.5 70.3013 118.054 70.3784 117.62 70.5ZM129.15 74.05V73.27C128.395 73.8173 127.492 74.1209 126.56 74.14C126.233 74.1687 125.903 74.1256 125.594 74.0139C125.285 73.9022 125.005 73.7245 124.771 73.4932C124.538 73.2619 124.358 72.9825 124.244 72.6746C124.13 72.3666 124.084 72.0375 124.11 71.71C124.04 70.5 124.11 66.18 124.11 66.18H125.6V71.35C125.67 72.43 126.1 72.97 127.25 72.97C127.944 72.9841 128.618 72.7379 129.14 72.28V66.18H130.64V74.05H129.15ZM139.34 74.05V73.33C138.689 73.8935 137.851 74.1931 136.99 74.17C134.99 74.17 133.62 72.61 133.62 70.32C133.578 69.7615 133.653 69.2004 133.842 68.673C134.03 68.1455 134.327 67.6635 134.714 67.2582C135.1 66.8528 135.567 66.5331 136.085 66.3199C136.603 66.1066 137.16 66.0044 137.72 66.02C138.272 66.0092 138.821 66.1007 139.34 66.29V61.29H140.84V74.05H139.34ZM139.34 67.53C138.865 67.2209 138.307 67.064 137.74 67.08C136.48 67.08 135.17 67.75 135.17 70.08C135.17 71.97 136.05 73.08 137.74 73.08C138.33 73.0703 138.897 72.8505 139.34 72.46V67.53ZM147.82 74.21C146.769 74.1498 145.781 73.6876 145.061 72.919C144.342 72.1505 143.945 71.1345 143.954 70.0817C143.963 69.0288 144.377 68.0198 145.11 67.2637C145.842 66.5075 146.838 66.0622 147.89 66.02C148.433 65.991 148.976 66.0787 149.483 66.2772C149.989 66.4756 150.448 66.7803 150.827 67.1706C151.206 67.561 151.497 68.0279 151.68 68.5401C151.863 69.0523 151.935 69.5978 151.89 70.14C151.919 70.6821 151.833 71.2241 151.639 71.731C151.444 72.2378 151.146 72.6981 150.762 73.082C150.378 73.4658 149.918 73.7646 149.411 73.959C148.904 74.1533 148.362 74.2388 147.82 74.21ZM147.82 67.12C146.2 67.12 145.36 68.4 145.36 69.93C145.36 71.62 146.19 73.11 148.06 73.11C149.68 73.11 150.4 71.82 150.4 70.27C150.36 68.45 149.39 67.12 147.78 67.12H147.82ZM159.86 74.05V73.27C159.105 73.8173 158.202 74.1209 157.27 74.14C156.943 74.1687 156.613 74.1256 156.304 74.0139C155.995 73.9022 155.715 73.7245 155.481 73.4932C155.248 73.2619 155.068 72.9825 154.954 72.6746C154.84 72.3666 154.794 72.0375 154.82 71.71C154.75 70.5 154.82 66.18 154.82 66.18H156.32V71.35C156.4 72.43 156.83 72.97 157.98 72.97C158.674 72.9841 159.348 72.7379 159.87 72.28V66.18H161.36V74.05H159.86ZM165.85 63.88C165.585 63.88 165.33 63.7747 165.143 63.5871C164.955 63.3996 164.85 63.1452 164.85 62.88C164.85 62.6148 164.955 62.3604 165.143 62.1729C165.33 61.9854 165.585 61.88 165.85 61.88C166.115 61.88 166.369 61.9854 166.557 62.1729C166.745 62.3604 166.85 62.6148 166.85 62.88C166.85 63.1452 166.745 63.3996 166.557 63.5871C166.369 63.7747 166.115 63.88 165.85 63.88ZM165.13 74.05V66.18H166.63V74.05H165.13ZM175.52 74.05V68.88C175.542 68.6531 175.512 68.4242 175.432 68.2105C175.353 67.9968 175.227 67.8038 175.062 67.646C174.897 67.4882 174.699 67.3697 174.483 67.2994C174.266 67.2291 174.036 67.2088 173.81 67.24C173.132 67.2215 172.469 67.4448 171.94 67.87V74.05H170.45V66.18H171.94V67C172.675 66.4058 173.577 66.0561 174.52 66C174.852 65.9751 175.186 66.0216 175.498 66.1365C175.811 66.2513 176.095 66.4319 176.332 66.666C176.569 66.9001 176.753 67.1822 176.872 67.4934C176.99 67.8046 177.041 68.1376 177.02 68.47C177.09 69.67 177.02 74.03 177.02 74.03L175.52 74.05ZM18.3299 94.75L17.6199 91.58H14.7799L13.1599 94.75H12.0799L16.6699 86H17.4399L19.4399 94.75H18.3299ZM16.7499 87.75L15.2299 90.75H17.4199L16.7499 87.75ZM25.5099 91.68C25.2824 92.5011 25.1614 93.3481 25.1499 94.2C25.1499 94.51 25.2099 95.2 25.2099 95.48C25.2623 95.8939 25.2163 96.3143 25.0755 96.707C24.9348 97.0997 24.7033 97.4537 24.3999 97.74C23.7961 98.2243 23.0321 98.4635 22.2599 98.41C21.3757 98.418 20.5163 98.1174 19.8299 97.56L20.1299 96.71C20.7669 97.2423 21.5607 97.5514 22.3899 97.59C22.6859 97.6272 22.9864 97.5931 23.2665 97.4904C23.5466 97.3878 23.7981 97.2196 23.9999 97C24.2565 96.5589 24.3651 96.0473 24.3099 95.54C24.3099 94.94 24.2599 94.54 24.2599 94.22C24.2203 93.8802 24.2685 93.5359 24.3999 93.22C24.1071 93.6707 23.7172 94.0502 23.2586 94.3305C22.8 94.6108 22.2845 94.7849 21.7499 94.84C21.0899 94.84 20.7999 94.26 20.7999 93.36C20.7776 92.6304 20.9125 91.9045 21.1955 91.2316C21.4785 90.5586 21.9029 89.9545 22.4399 89.46C22.8954 89.1398 23.4435 88.9782 23.9999 89C24.4427 88.9851 24.8793 89.1073 25.2499 89.35L25.4799 89H26.0999C26.0999 89 25.7999 90.3 25.5099 91.68ZM23.8799 89.68C23.6651 89.6852 23.4537 89.735 23.2592 89.8262C23.0647 89.9175 22.8912 90.0482 22.7499 90.21C22.0841 91.0973 21.7323 92.1808 21.7499 93.29C21.7499 93.88 21.9699 93.96 22.2199 93.96C22.7818 93.8874 23.294 93.6009 23.6499 93.16C24.0937 92.7236 24.4353 92.1943 24.6499 91.61L24.9999 90C24.6731 89.7714 24.2777 89.6619 23.8799 89.69V89.68ZM27.8799 94.75H26.9399L27.8599 89.07H28.7999L27.8799 94.75ZM28.5999 87.35C28.5251 87.3518 28.4507 87.3376 28.3817 87.3086C28.3127 87.2795 28.2506 87.2361 28.1996 87.1813C28.1486 87.1265 28.1098 87.0615 28.0857 86.9906C28.0616 86.9197 28.0528 86.8445 28.0599 86.77C28.0502 86.668 28.0618 86.565 28.094 86.4677C28.1262 86.3703 28.1783 86.2807 28.2469 86.2046C28.3155 86.1284 28.3992 86.0674 28.4927 86.0253C28.5862 85.9832 28.6874 85.9609 28.7899 85.96C29.1499 85.96 29.3099 86.21 29.3099 86.56C29.3181 86.6591 29.306 86.7589 29.2742 86.8532C29.2425 86.9474 29.1918 87.0342 29.1253 87.1082C29.0589 87.1822 28.978 87.2418 28.8876 87.2834C28.7972 87.3249 28.6993 87.3476 28.5999 87.35ZM33.7899 90.28C33.6003 90.0727 33.3398 89.9442 33.0599 89.92C32.3899 89.92 31.6199 90.78 31.1399 92.46C31.0499 92.77 30.7499 94.75 30.7499 94.75H29.8099C29.9199 93.84 30.5699 90.56 30.7099 89.07H31.7099C31.6299 89.74 31.3899 90.73 31.3899 90.73C31.9099 89.63 32.7299 88.98 33.3899 88.98C33.5642 88.9773 33.7361 89.0201 33.8887 89.1043C34.0414 89.1885 34.1693 89.3111 34.2599 89.46L33.7899 90.28ZM39.5299 92C38.9602 92.1942 38.3747 92.338 37.7799 92.43C37.7677 92.5764 37.7677 92.7236 37.7799 92.87C37.7799 93.61 38.0699 94.03 38.7799 94.03C39.6197 93.965 40.408 93.5993 40.9999 93L41.3999 93.66C40.6413 94.3625 39.6621 94.7797 38.6299 94.84C37.6299 94.84 36.8399 94.39 36.8399 92.94C36.8399 91.02 37.8399 88.94 39.9199 88.94C40.7799 88.94 41.4099 89.36 41.4099 90.15C41.4099 90.94 40.7199 91.56 39.5299 92ZM39.7099 89.7C39.0199 89.7 38.2099 90.29 37.8899 91.7C38.3193 91.6395 38.7415 91.5356 39.1499 91.39C39.8299 91.16 40.3999 90.9 40.3999 90.26C40.3999 89.81 40.0499 89.69 39.7099 89.69V89.7ZM46.2899 94.75C46.0771 94.7714 45.8627 94.7714 45.6499 94.75C45.9199 92.75 46.3799 90.87 46.3799 90.3C46.3799 90 46.3799 89.88 46.0699 89.88C45.1599 89.88 43.8799 91.31 43.6199 92.25C43.5299 92.6 43.1699 94.8 43.1699 94.8H42.2299C42.3399 93.89 43.0299 90.34 43.2299 89.12H44.2299C44.1199 89.79 43.8999 90.76 43.8999 90.76C43.8999 90.76 44.9399 89 46.5199 89C47.1499 89 47.3899 89.36 47.3899 89.94C47.3899 90.52 46.9799 92.55 46.7399 93.94C47.0895 93.9058 47.4292 93.8039 47.7399 93.64L48.0399 94.26C47.5191 94.5956 46.9093 94.7664 46.2899 94.75ZM52.7499 90C52.3556 89.805 51.9197 89.7089 51.4799 89.72C50.7999 89.72 50.4799 89.98 50.4799 90.43C50.4799 90.88 50.7899 91.1 51.4799 91.56C51.8999 91.83 52.7199 92.34 52.7199 93.19C52.7199 94.35 51.8899 94.89 50.5999 94.89C49.9996 94.884 49.4134 94.7071 48.9099 94.38L49.0399 93.45C49.5245 93.8328 50.1138 94.0594 50.7299 94.1C51.4699 94.1 51.7799 93.88 51.7799 93.42C51.7799 92.96 51.4399 92.65 50.7799 92.25C50.1199 91.85 49.5699 91.35 49.5699 90.61C49.5699 89.49 50.4699 88.96 51.5699 88.96C52.019 88.9409 52.4667 89.0229 52.8799 89.2L52.7499 90ZM56.4299 92C55.8638 92.1947 55.2815 92.3386 54.6899 92.43C54.6737 92.5762 54.6737 92.7238 54.6899 92.87C54.6899 93.61 54.9899 94.03 55.6899 94.03C56.5161 93.9696 57.2932 93.6148 57.8799 93.03L58.2899 93.69C57.5313 94.3925 56.5521 94.8097 55.5199 94.87C54.5199 94.87 53.7199 94.42 53.7199 92.97C53.7199 91.05 54.7199 88.97 56.7999 88.97C57.6599 88.97 58.2999 89.39 58.2999 90.18C58.2999 90.97 57.6299 91.56 56.4299 92ZM56.6199 89.7C55.9299 89.7 55.1199 90.29 54.7999 91.7C55.2293 91.6395 55.6515 91.5356 56.0599 91.39C56.7299 91.16 57.2999 90.9 57.2999 90.26C57.2999 89.81 56.9999 89.69 56.6199 89.69V89.7ZM66.5899 94.75C66.3771 94.7714 66.1627 94.7714 65.9499 94.75C66.2299 92.75 66.6799 90.87 66.6799 90.3C66.6799 90 66.6799 89.88 66.3699 89.88C65.3699 89.88 64.1599 91.5 63.9799 92.11C63.7899 93.11 63.5999 94.17 63.5199 94.8H62.5199C62.7899 92.8 63.2599 90.87 63.2599 90.3C63.2599 90 63.2599 89.88 62.9499 89.88C62.0399 89.88 60.7599 91.31 60.4999 92.25C60.4099 92.6 60.0499 94.8 60.0499 94.8H59.1099C59.2099 93.89 59.8999 90.34 60.1099 89.12H61.1099C61.0099 89.79 60.7899 90.76 60.7899 90.76C60.7899 90.76 61.8399 89 63.4299 89C64.0499 89 64.2799 89.36 64.2799 89.94C64.2799 90.13 64.1799 90.72 64.1799 90.72C64.1799 90.72 65.2899 89 66.8199 89C67.4499 89 67.6899 89.36 67.6899 89.94C67.6899 90.52 67.2799 92.55 67.0399 93.94C67.3892 93.9038 67.7284 93.802 68.0399 93.64L68.3299 94.26C67.812 94.5937 67.2059 94.7644 66.5899 94.75ZM71.3999 94.85C70.6495 94.8563 69.9156 94.6291 69.2999 94.2L70.7699 85.52H71.7099L70.8399 90.38C71.0841 89.9749 71.4207 89.6332 71.8222 89.3829C72.2236 89.1327 72.6786 88.9809 73.1499 88.94C74.0199 88.94 74.6299 89.59 74.6299 90.94C74.6299 93.08 73.6199 94.85 71.3999 94.85ZM72.8899 89.85C71.8899 89.85 70.8899 90.93 70.5199 92.23L70.2399 93.76C70.6333 94.0036 71.0872 94.1318 71.5499 94.13C72.9699 94.13 73.6399 92.85 73.6399 91.06C73.6399 90.22 73.3599 89.82 72.8899 89.82V89.85ZM76.5999 94.75H75.6699L77.1499 85.52H78.0799L76.5999 94.75ZM81.2499 92C80.6838 92.1947 80.1015 92.3386 79.5099 92.43C79.4937 92.5762 79.4937 92.7238 79.5099 92.87C79.5099 93.61 79.8099 94.03 80.5099 94.03C81.3394 93.9711 82.1201 93.6162 82.7099 93.03L83.1099 93.69C82.3557 94.3933 81.3794 94.8107 80.3499 94.87C79.3499 94.87 78.5499 94.42 78.5499 92.97C78.5499 91.05 79.5499 88.97 81.6299 88.97C82.4899 88.97 83.1299 89.39 83.1299 90.18C83.1299 90.97 82.4499 91.56 81.2499 92ZM81.4299 89.7C80.7399 89.7 79.9399 90.29 79.6099 91.7C80.0395 91.6407 80.4618 91.5369 80.8699 91.39C81.5499 91.16 82.1199 90.9 82.1199 90.26C82.1199 89.81 81.7699 89.69 81.4299 89.69V89.7ZM88.7399 94.87C88.3178 94.8698 87.8986 94.7988 87.4999 94.66L86.9099 98.39H85.9999L86.7799 93.64C87.0799 91.78 87.4799 89.07 87.4799 89.07H88.4199L88.1999 90.41C88.4456 90.013 88.7805 89.6788 89.1781 89.434C89.5756 89.1893 90.0248 89.0406 90.4899 89C91.3699 89 91.9799 89.65 91.9799 91C91.9999 92.71 91.1099 94.87 88.7399 94.87ZM90.2199 89.87C89.2899 89.87 88.2199 90.93 87.8799 92.23L87.6199 93.8C87.9928 94.0459 88.4336 94.1684 88.8799 94.15C90.2499 94.15 90.9899 92.75 90.9899 91.08C90.9999 90.24 90.6999 89.83 90.2199 89.83V89.87ZM95.5499 94.85C95.2116 94.8794 94.871 94.8328 94.5531 94.7137C94.2351 94.5946 93.9477 94.4059 93.7119 94.1615C93.4762 93.9172 93.298 93.6232 93.1904 93.3011C93.0828 92.9791 93.0484 92.637 93.0899 92.3C93.0513 91.8798 93.0998 91.4561 93.2323 91.0555C93.3649 90.6548 93.5786 90.2858 93.8601 89.9714C94.1416 89.6571 94.4849 89.4041 94.8686 89.2284C95.2522 89.0526 95.668 88.9579 96.0899 88.95C97.2299 88.95 98.5099 89.37 98.5099 91.47C98.4899 93.24 97.4299 94.85 95.5499 94.85ZM95.9999 89.73C95.1599 89.73 93.9999 90.43 93.9999 92.38C93.9699 92.6026 93.9897 92.8292 94.0577 93.0433C94.1257 93.2573 94.2404 93.4537 94.3934 93.6182C94.5464 93.7827 94.734 93.9112 94.9426 93.9945C95.1512 94.0778 95.3757 94.1138 95.5999 94.1C96.5399 94.1 97.4999 93.24 97.4999 91.43C97.4999 90.22 96.8199 89.73 95.9999 89.73ZM103.47 94.79C103.285 94.8001 103.1 94.7832 102.92 94.74L103.2 93.17C102.984 93.5029 102.722 93.8027 102.42 94.06C101.9 94.5391 101.227 94.8189 100.52 94.85C99.8999 94.85 99.6899 94.46 99.6899 93.85C99.6899 93.24 100.17 90.61 100.43 89.03H101.38C101.06 90.9 100.67 92.97 100.67 93.54C100.67 93.84 100.67 93.95 100.99 93.95C101.93 93.95 103.15 92.49 103.4 91.58C103.51 91.12 103.85 89.03 103.85 89.03H104.79L104.33 91.65C104 93.33 104 94 104 94C104.35 93.9701 104.691 93.8679 105 93.7L105.3 94.32C104.753 94.6614 104.114 94.8256 103.47 94.79ZM110.14 90.28C109.949 90.075 109.689 89.947 109.41 89.92C108.73 89.92 107.97 90.78 107.49 92.46C107.4 92.77 107.1 94.75 107.1 94.75H106.16C106.26 93.84 106.91 90.56 107.06 89.07H108.06C107.98 89.74 107.75 90.73 107.75 90.73C108.27 89.63 109.09 88.98 109.75 88.98C109.924 88.9773 110.096 89.0201 110.249 89.1043C110.401 89.1885 110.529 89.3111 110.62 89.46L110.14 90.28ZM117.12 94.79C116.932 94.7998 116.743 94.783 116.56 94.74L116.85 93.17C116.634 93.5029 116.372 93.8027 116.07 94.06C115.55 94.5391 114.877 94.8189 114.17 94.85C113.54 94.85 113.34 94.46 113.34 93.85C113.34 93.24 113.82 90.61 114.08 89.03H115.08C114.75 90.9 114.36 92.97 114.36 93.54C114.36 93.84 114.36 93.95 114.69 93.95C115.62 93.95 116.84 92.49 117.09 91.58C117.21 91.12 117.55 89.03 117.55 89.03H118.48L118.03 91.65C117.879 92.4024 117.752 93.1594 117.65 93.92C118 93.8898 118.341 93.7876 118.65 93.62L118.94 94.24C118.406 94.6107 117.769 94.8032 117.12 94.79ZM123.84 94.75C123.63 94.7711 123.419 94.7711 123.21 94.75C123.48 92.75 123.93 90.87 123.93 90.3C123.93 90 123.93 89.88 123.62 89.88C122.71 89.88 121.44 91.31 121.18 92.25C121.09 92.6 120.72 94.8 120.72 94.8H119.79C119.89 93.89 120.58 90.34 120.79 89.12H121.79C121.69 89.79 121.47 90.76 121.47 90.76C121.47 90.76 122.49 89 124.08 89C124.7 89 124.95 89.36 124.95 89.94C124.95 90.52 124.53 92.55 124.3 93.94C124.65 93.9058 124.989 93.8039 125.3 93.64L125.6 94.26C125.075 94.5947 124.462 94.7653 123.84 94.75ZM129.16 92C128.59 92.1942 128.005 92.338 127.41 92.43C127.398 92.5764 127.398 92.7236 127.41 92.87C127.41 93.61 127.7 94.03 128.41 94.03C129.239 93.9685 130.019 93.614 130.61 93.03L131.01 93.69C130.251 94.3925 129.272 94.8097 128.24 94.87C127.24 94.87 126.45 94.42 126.45 92.97C126.45 91.05 127.45 88.97 129.53 88.97C130.39 88.97 131.02 89.39 131.02 90.18C131.02 90.97 130.35 91.56 129.16 92ZM129.34 89.7C128.65 89.7 127.84 90.29 127.52 91.7C127.949 91.6395 128.371 91.5356 128.78 91.39C129.46 91.16 130.03 90.9 130.03 90.26C130 89.81 129.68 89.69 129.34 89.69V89.7ZM138.05 90C137.652 89.8042 137.213 89.7081 136.77 89.72C136.1 89.72 135.72 89.98 135.72 90.43C135.72 90.88 136.03 91.1 136.72 91.56C137.14 91.83 137.95 92.34 137.95 93.19C137.95 94.35 137.12 94.89 135.84 94.89C135.24 94.884 134.653 94.7071 134.15 94.38L134.28 93.45C134.764 93.8328 135.354 94.0594 135.97 94.1C136.71 94.1 136.97 93.88 136.97 93.42C136.97 92.96 136.63 92.65 135.97 92.25C135.31 91.85 134.76 91.35 134.76 90.61C134.76 89.49 135.65 88.96 136.76 88.96C137.209 88.9409 137.657 89.0229 138.07 89.2L138.05 90ZM141.46 94.85C141.122 94.8794 140.781 94.8328 140.463 94.7137C140.145 94.5946 139.858 94.4059 139.622 94.1615C139.386 93.9172 139.208 93.6232 139.1 93.3011C138.993 92.9791 138.958 92.637 139 92.3C138.969 91.8838 139.022 91.4655 139.158 91.0708C139.294 90.6761 139.509 90.3132 139.79 90.0043C140.07 89.6954 140.411 89.4471 140.791 89.2744C141.171 89.1017 141.583 89.0084 142 89C143.14 89 144.41 89.42 144.41 91.52C144.39 93.24 143.34 94.85 141.46 94.85ZM141.91 89.73C141.07 89.73 139.96 90.43 139.96 92.38C139.931 92.5983 139.95 92.8203 140.015 93.0306C140.08 93.2409 140.19 93.4346 140.337 93.5982C140.485 93.7618 140.666 93.8914 140.868 93.978C141.071 94.0647 141.29 94.1063 141.51 94.1C142.45 94.1 143.41 93.24 143.41 91.43C143.41 90.22 142.73 89.73 141.91 89.73ZM149.82 90.13C149.393 89.8765 148.906 89.7418 148.41 89.74C146.97 89.74 146.41 91.59 146.41 92.86C146.41 93.57 146.71 94.02 147.41 94.02C148.236 93.9596 149.013 93.6048 149.6 93.02L150.01 93.68C149.251 94.3825 148.272 94.7997 147.24 94.86C146.24 94.86 145.44 94.41 145.44 92.96C145.44 90.96 146.44 88.96 148.5 88.96C149.03 88.9508 149.554 89.0673 150.03 89.3L149.82 90.13ZM151.82 94.75H150.89L151.81 89.07H152.75L151.82 94.75ZM152.55 87.35C152.475 87.3518 152.401 87.3376 152.332 87.3086C152.263 87.2795 152.201 87.2361 152.15 87.1813C152.099 87.1265 152.06 87.0615 152.036 86.9906C152.012 86.9197 152.003 86.8445 152.01 86.77C152 86.6688 152.012 86.5666 152.043 86.47C152.075 86.3733 152.126 86.2842 152.193 86.2082C152.261 86.1322 152.344 86.0709 152.436 86.0282C152.528 85.9855 152.628 85.9623 152.73 85.96C153.1 85.96 153.25 86.21 153.25 86.56C153.258 86.6583 153.246 86.7573 153.215 86.8509C153.184 86.9445 153.134 87.0308 153.069 87.1047C153.003 87.1785 152.924 87.2383 152.834 87.2805C152.745 87.3226 152.648 87.3463 152.55 87.35ZM156.48 92C155.914 92.1947 155.332 92.3386 154.74 92.43C154.724 92.5762 154.724 92.7238 154.74 92.87C154.74 93.61 155.04 94.03 155.74 94.03C156.569 93.9685 157.349 93.614 157.94 93.03L158.34 93.69C157.581 94.3925 156.602 94.8097 155.57 94.87C154.57 94.87 153.77 94.42 153.77 92.97C153.77 91.05 154.77 88.97 156.86 88.97C157.71 88.97 158.35 89.39 158.35 90.18C158.35 90.97 157.68 91.56 156.48 92ZM156.67 89.7C155.98 89.7 155.17 90.29 154.85 91.7C155.279 91.6395 155.701 91.5356 156.11 91.39C156.78 91.16 157.36 90.9 157.36 90.26C157.36 89.81 157 89.69 156.67 89.69V89.7ZM156.22 88.4L155.73 87.97L157.99 85.97L158.64 86.48L156.22 88.4ZM162.8 90H161.11L160.75 92.07C160.663 92.5187 160.609 92.9733 160.59 93.43C160.59 93.89 160.81 94.02 161.12 94.02C161.579 93.95 162.004 93.7405 162.34 93.42V94.25C161.867 94.6325 161.278 94.8439 160.67 94.85C160.532 94.8611 160.393 94.8434 160.263 94.7981C160.132 94.7529 160.012 94.681 159.91 94.587C159.809 94.493 159.728 94.379 159.673 94.2521C159.618 94.1253 159.589 93.9883 159.59 93.85C159.59 93.43 159.78 92.34 159.89 91.63L160.15 90.07H159.27L159.4 89.3H160.27L160.73 87.86H161.45L161.21 89.31H162.9L162.8 90ZM166.1 92C165.534 92.1947 164.952 92.3386 164.36 92.43C164.344 92.5762 164.344 92.7238 164.36 92.87C164.36 93.61 164.66 94.03 165.36 94.03C166.186 93.9696 166.963 93.6148 167.55 93.03L167.96 93.69C167.201 94.3925 166.222 94.8097 165.19 94.87C164.19 94.87 163.39 94.42 163.39 92.97C163.39 91.05 164.39 88.97 166.48 88.97C167.33 88.97 167.97 89.39 167.97 90.18C167.97 90.97 167.3 91.56 166.1 92ZM166.29 89.7C165.6 89.7 164.79 90.29 164.47 91.7C164.899 91.6395 165.321 91.5356 165.73 91.39C166.4 91.16 166.97 90.9 166.97 90.26C167 89.81 166.62 89.69 166.29 89.69V89.7ZM165.84 88.4L165.35 87.97L167.61 85.97L168.26 86.48L165.84 88.4ZM178.75 94.75C178.54 94.7711 178.329 94.7711 178.12 94.75C178.39 92.75 178.84 90.87 178.84 90.3C178.84 90 178.84 89.88 178.53 89.88C177.53 89.88 176.32 91.5 176.14 92.11C175.96 93.11 175.76 94.17 175.68 94.8H174.68C174.95 92.8 175.42 90.87 175.42 90.3C175.42 90 175.42 89.88 175.11 89.88C174.2 89.88 172.92 91.31 172.66 92.25C172.57 92.6 172.21 94.8 172.21 94.8H171.27C171.38 93.89 172.07 90.34 172.27 89.12H173.27C173.16 89.79 172.94 90.76 172.94 90.76C172.94 90.76 174 89 175.59 89C176.22 89 176.44 89.36 176.44 89.94C176.44 90.13 176.35 90.72 176.35 90.72C176.35 90.72 177.45 89 179 89C179.62 89 179.87 89.36 179.87 89.94C179.87 90.52 179.45 92.55 179.22 93.94C179.57 93.9058 179.909 93.8039 180.22 93.64L180.52 94.26C179.992 94.5967 179.376 94.7673 178.75 94.75ZM184.06 92C183.494 92.1947 182.912 92.3386 182.32 92.43C182.304 92.5762 182.304 92.7238 182.32 92.87C182.32 93.61 182.62 94.03 183.32 94.03C184.146 93.9696 184.923 93.6148 185.51 93.03L185.92 93.69C185.161 94.3925 184.182 94.8097 183.15 94.87C182.15 94.87 181.35 94.42 181.35 92.97C181.35 91.05 182.35 88.97 184.44 88.97C185.29 88.97 185.93 89.39 185.93 90.18C185.93 90.97 185.26 91.56 184.06 92ZM184.25 89.7C183.56 89.7 182.75 90.29 182.43 91.7C182.859 91.6395 183.281 91.5356 183.69 91.39C184.36 91.16 184.93 90.9 184.93 90.26C184.93 89.81 184.58 89.69 184.25 89.69V89.7ZM187.76 94.75H186.83L187.75 89.07H188.69L187.76 94.75ZM188.49 87.35C188.415 87.3516 188.34 87.3375 188.27 87.3085C188.201 87.2795 188.138 87.2363 188.087 87.1817C188.035 87.1271 187.995 87.0623 187.97 86.9914C187.944 86.9205 187.934 86.8451 187.94 86.77C187.932 86.6683 187.944 86.5659 187.977 86.4692C188.01 86.3725 188.062 86.2835 188.13 86.2077C188.199 86.1319 188.282 86.0708 188.375 86.0282C188.467 85.9856 188.568 85.9624 188.67 85.96C189.04 85.96 189.19 86.21 189.19 86.56C189.198 86.6583 189.186 86.7573 189.155 86.8509C189.124 86.9445 189.074 87.0308 189.009 87.1047C188.943 87.1785 188.864 87.2383 188.774 87.2805C188.685 87.3226 188.588 87.3463 188.49 87.35ZM190.66 94.75H189.72L191.2 85.52H192.14L190.66 94.75ZM193.53 94.75H192.6L194.08 85.52H195L193.53 94.75ZM198.18 92C197.61 92.1942 197.025 92.338 196.43 92.43C196.418 92.5764 196.418 92.7236 196.43 92.87C196.43 93.61 196.73 94.03 197.43 94.03C198.259 93.9685 199.039 93.614 199.63 93.03L200.03 93.69C199.271 94.3925 198.292 94.8097 197.26 94.87C196.26 94.87 195.47 94.42 195.47 92.97C195.47 91.05 196.47 88.97 198.55 88.97C199.41 88.97 200.04 89.39 200.04 90.18C200.04 90.97 199.37 91.56 198.18 92ZM198.36 89.7C197.67 89.7 196.86 90.29 196.54 91.7C196.969 91.6395 197.391 91.5356 197.8 91.39C198.48 91.16 199.05 90.9 199.05 90.26C199.05 89.81 198.7 89.69 198.36 89.69V89.7ZM204.85 94.79C204.665 94.8001 204.48 94.7832 204.3 94.74L204.58 93.17C204.364 93.5029 204.102 93.8027 203.8 94.06C203.28 94.5391 202.607 94.8189 201.9 94.85C201.28 94.85 201.07 94.46 201.07 93.85C201.07 93.24 201.55 90.61 201.81 89.03H202.76C202.44 90.9 202.05 92.97 202.05 93.54C202.05 93.84 202.05 93.95 202.37 93.95C203.31 93.95 204.53 92.49 204.78 91.58C204.89 91.12 205.23 89.03 205.23 89.03H206.17L205.71 91.65C205.557 92.4016 205.434 93.1588 205.34 93.92C205.69 93.8901 206.031 93.7879 206.34 93.62L206.64 94.24C206.113 94.6017 205.489 94.7936 204.85 94.79ZM211.52 90.28C211.33 90.0727 211.07 89.9442 210.79 89.92C210.12 89.92 209.35 90.78 208.87 92.46C208.78 92.77 208.48 94.75 208.48 94.75H207.54C207.65 93.84 208.3 90.56 208.44 89.07H209.44C209.366 89.6284 209.262 90.1825 209.13 90.73C209.65 89.63 210.47 88.98 211.13 88.98C211.304 88.9773 211.476 89.0201 211.629 89.1043C211.781 89.1885 211.909 89.3111 212 89.46L211.52 90.28ZM214.73 92C214.163 92.1936 213.581 92.3375 212.99 92.43C212.974 92.5762 212.974 92.7238 212.99 92.87C212.99 93.61 213.29 94.03 213.99 94.03C214.819 93.9685 215.599 93.614 216.19 93.03L216.59 93.69C215.831 94.3925 214.852 94.8097 213.82 94.87C212.82 94.87 212.03 94.42 212.03 92.97C212.03 91.05 213.03 88.97 215.11 88.97C215.97 88.97 216.6 89.39 216.6 90.18C216.6 90.97 215.92 91.56 214.73 92ZM214.91 89.7C214.22 89.7 213.41 90.29 213.09 91.7C213.519 91.6395 213.941 91.5356 214.35 91.39C215.03 91.16 215.6 90.9 215.6 90.26C215.6 89.81 215.25 89.69 214.91 89.69V89.7Z"/>
</svg>