<svg xmlns="http://www.w3.org/2000/svg" viewBox="0 0 311.46 127.01">
    <path fill="none" d="M0 0h311.46v127.01H0z"/>
    <path fill="#1d1d1b" d="M60.03 12.89h.88v61.17h-.88V12.89z"/>
    <path fill="#1d1d1b" fill-rule="evenodd"
          d="M46.1 41.35a7.77 7.77 0 0 1-.1 7c-1.19 2.61-5.31 4.62-5.79 4.8A9.64 9.64 0 0 1 48.5 60a11.67 11.67 0 0 1-2.35 11c-2.19 2.3-4.81 3.4-9.53 3.31-3.15-.06-4.89-.32-8-.29-1.35 0-2.27.1-2.27.1L26.22 73c.91-.21 2.24.1 3.08-1.22.36-.54.6-4.25.67-7 .09-3.47.13-8.9.13-8.9s0-6-.13-9.91c0-.62 0-1-.06-1.58-.09-1.77-.33-4.54-.33-4.54-.13-.7-.08-1.28-1.1-1.76a6.39 6.39 0 0 0-2.86-.44v-.93a60.85 60.85 0 0 0 9.45.06c4.82-.32 9.2.37 11 4.52zm-4.18.08a7.68 7.68 0 0 1 .72 7.57 6.76 6.76 0 0 1-6.11 3.7 4.87 4.87 0 0 1-1.73-.32l-.33 1.87a6.72 6.72 0 0 1 2.36-.3c3.31 0 5.14 1.87 6.84 4.6a10.8 10.8 0 0 1-.28 10.91c-2 2.65-4.71 3.41-8 2.84a6.67 6.67 0 0 1-2-.61s-.15-5.8-.2-9.5c-.08-6.06 0-9.48 0-15.54 0-3.07.11-7.89.11-7.89a9.48 9.48 0 0 1 6.69.89 6.33 6.33 0 0 1 1.88 1.8z"/>
    <path fill="#1d1d1b"
          d="M31.67 14.13a1.13 1.13 0 1 1 2.25 0 1.13 1.13 0 0 1-2.25 0zm-2.51.19a1.12 1.12 0 1 1 1.12 1.12 1.12 1.12 0 0 1-1.12-1.12zm-1.09 4.26a1.12 1.12 0 1 1 1.12 1.12 1.12 1.12 0 0 1-1.12-1.12zm-.56-2.4a1.13 1.13 0 1 1 1.13 1.12 1.13 1.13 0 0 1-1.13-1.12zm-2.33-1.05a1.12 1.12 0 1 1 1.12 1.12 1.12 1.12 0 0 1-1.12-1.12zm-2.38.95a1.13 1.13 0 1 1 1.12 1.12 1.13 1.13 0 0 1-1.12-1.12zm-1.61 2.03a1.12 1.12 0 1 1 1.12 1.12 1.13 1.13 0 0 1-1.12-1.12zm.2 2.56a1.13 1.13 0 1 1 1.12 1.12 1.13 1.13 0 0 1-1.12-1.12zM27.4 31c0-.76 4.21-1.38 9.4-1.38s9.41.62 9.41 1.38-4.21 1.36-9.41 1.36-9.4-.61-9.4-1.37zm9.38-16.32A1.92 1.92 0 0 1 34.85 13a4.2 4.2 0 0 1 1.93-.35 4.22 4.22 0 0 1 1.94.35 1.91 1.91 0 0 1-1.94 1.66zm2.81-.59a1.12 1.12 0 1 1 1.12 1.12 1.12 1.12 0 0 1-1.12-1.12zm2.5.17a1.13 1.13 0 1 1 1.12 1.12 1.12 1.12 0 0 1-1.12-1.12zm1.66 1.84a1.12 1.12 0 1 1 1.12 1.12 1.12 1.12 0 0 1-1.12-1.12zm2.32-1.1a1.12 1.12 0 1 1 1.12 1.12A1.12 1.12 0 0 1 46.07 15zm-2.87 3.5a1.12 1.12 0 1 1 1.12 1.12 1.12 1.12 0 0 1-1.12-1.12zm5.27-2.5a1.13 1.13 0 0 1 2.25 0 1.13 1.13 0 1 1-2.25 0zm1.65 2a1.12 1.12 0 1 1 1.12 1.12A1.12 1.12 0 0 1 50.12 18zm-.19 2.53a1.12 1.12 0 1 1 1.12 1.12 1.12 1.12 0 0 1-1.12-1.12z"/>
    <path fill="#1d1d1b" fill-rule="evenodd"
          d="M38.71 12.31a2 2 0 0 0-1.11-1.38l-.53-.93.09-.11.88.45V8.89l-.85.46-.12-.12.53-.87H36l.52.86-.12.13-.85-.46v1.43l.88-.46.1.12-.53.94a2 2 0 0 0-1.11 1.39S35 12 36.27 12v-1a1.79 1.79 0 0 1 .51-.07 1.75 1.75 0 0 1 .51.07v1c1.31 0 1.42.35 1.42.35zm-1.93 6.61a3.2 3.2 0 0 0-1.3.18 6.91 6.91 0 0 0-1.42-4.53c-.05-.37.52-.58.52-.58A2.53 2.53 0 0 0 39 14s.57.21.52.58a6.91 6.91 0 0 0-1.42 4.53 3.16 3.16 0 0 0-1.3-.18z"/>
    <path fill="#1d1d1b"
          d="M36.78 19.32a1.58 1.58 0 0 1 1.24.35c0 .56-.25.64-.45.84a.63.63 0 0 0 .29 1 .77.77 0 0 0 .68-.36c.11-.16.14-.36.34-.39s.38.32.45.6-.13 1.69-.71 1.58c-.39-.08-.22-.55-.71-.73a.84.84 0 0 0-.71 0c-.37.16-.22 1 0 1.54a1.28 1.28 0 0 0 .62.73c1.08.47 1.78-1.73 1.89-2.08a.43.43 0 0 1-.17-.54.43.43 0 0 1 .32-.28.45.45 0 0 1 .52.28.43.43 0 0 1-.08.45.38.38 0 0 1-.29.15c-.08.48-.24 2 .58 2.26.35.12.94-.32 1.25-.8s.67-1.37.17-1.5a.57.57 0 0 0-.61.1c-.35.31-.45.65-.78.53s-.1-.62 0-1 .28-1.12.65-1.13.26.65.78.79a.51.51 0 0 0 .51-.22.75.75 0 0 0 .14-.59c0-.3-.26-.43-.25-.74 0-.85 2-.53 2.16.29.1.42-1.15.71-1.05 1.4 0 .24.35.19.6.11.44-.13.43-.47.81-.53.83-.11-.39 2.53-.85 2-.16-.2-.06-.46-.26-.62a.7.7 0 0 0-.24-.13c-.63-.21-1.08.69-1 1.34 0 .41.11.81.49.91.55.14 1.55-.61 2.22-1.8a.45.45 0 0 1 0-.52.46.46 0 0 1 .43-.21.39.39 0 0 1 .3.16.42.42 0 0 1 0 .54.41.41 0 0 1-.41.18c-.25.55-.95 2-.12 2.23.46.15 1.33-.52 1.47-.64.41-.38 1.16-1 .76-1.23s-1.07.62-1.46.2c-.25-.25.07-.88.37-1.34.18-.27.27-.54.59-.6.52-.1.32.92.83 1.07 1 .29.28-1.49 1.19-1.58.4 0 .68 0 .85.34a1.15 1.15 0 0 1 0 .6 23.23 23.23 0 0 0-4 4.95c-.33-.92-4.16-1.6-9.36-1.6s-9.07.66-9.4 1.58a19.35 19.35 0 0 0-4-4.93 1.15 1.15 0 0 1 0-.6c.17-.32.45-.38.85-.34.91.09.15 1.87 1.19 1.58.51-.15.31-1.17.83-1.07.32.06.41.33.59.6.3.46.62 1.09.38 1.34-.4.42-.92-.55-1.47-.2s.35.85.77 1.23c.13.12 1 .79 1.46.64.83-.26.13-1.68-.12-2.23a.42.42 0 0 1-.41-.18.44.44 0 0 1 0-.54.41.41 0 0 1 .31-.16.44.44 0 0 1 .42.21.45.45 0 0 1 0 .52c.66 1.19 1.67 1.94 2.21 1.8s.46-.5.49-.91c.06-.65-.4-1.55-1-1.34a.85.85 0 0 0-.25.13c-.2.16-.09.42-.26.62-.46.55-1.68-2.09-.85-2 .38.06.37.4.82.53.24.08.56.13.59-.11.1-.69-1.15-1-1-1.4.2-.82 2.11-1.14 2.15-.29 0 .31-.25.44-.25.74a.8.8 0 0 0 .14.59.53.53 0 0 0 .52.22c.51-.14.34-.81.77-.79s.55.63.66 1.13.18.93 0 1-.42-.22-.77-.53a.57.57 0 0 0-.61-.1c-.51.13-.15 1 .17 1.5s.9.92 1.24.8c.83-.29.66-1.78.58-2.26a.36.36 0 0 1-.28-.15.4.4 0 0 1-.08-.45.44.44 0 0 1 .51-.28.45.45 0 0 1 .15.82c.11.35.82 2.55 1.89 2.08a1.28 1.28 0 0 0 .62-.73c.26-.54.41-1.38 0-1.54a.84.84 0 0 0-.71 0c-.49.18-.32.65-.71.73-.58.11-.79-1.27-.71-1.58s.16-.66.45-.6.23.23.34.39a.77.77 0 0 0 .68.36.62.62 0 0 0 .29-1c-.19-.2-.45-.28-.45-.84a1.58 1.58 0 0 1 1.24-.35z"/>
    <path fill="#1d1d1b" fill-rule="evenodd"
          d="m36.78 26.43-1.88 1.11 1.88 1.12 1.89-1.13-1.89-1.1zm6.45 2.3-2.92-.35v-1.45l2.92.32v1.48zm1.22-.47 1.14-.26.76 1.18-.71.36-1.19-1.28zm-14.12.47 2.93-.35v-1.45l-2.93.32v1.48zm-1.22-.47L28 28l-.77 1.18.71.36 1.19-1.28zm7.67-2c5.2 0 9.43.52 9.26 1.68 0 .32.3.69.79 1.34-.23.23-.89.24-.81.87-.72-.73-5.58-1.15-9.24-1.15s-8.52.44-9.23 1.16c.08-.63-.59-.64-.81-.87.48-.65.78-1 .78-1.34-.16-1.16 4.06-1.68 9.26-1.68z"/>
    <path fill="#1d1d1b"
          d="M12.91 12.89h.88v61.17h-.88V12.89zm61.3 31.76v5.4h-1.6V37.93h6.91v1.37h-5.31v4h5.31v1.35zm11.57 5.56a4.1 4.1 0 0 1 .07-8.21 3.81 3.81 0 0 1 4 4.12 3.87 3.87 0 0 1-4.07 4.09zm0-7.09a2.51 2.51 0 0 0-2.47 2.81c0 1.69.83 3.18 2.7 3.18 1.62 0 2.34-1.29 2.34-2.84-.03-1.82-1-3.15-2.6-3.15zm12.16 6.93v-5.17a1.51 1.51 0 0 0-1.71-1.64 2.83 2.83 0 0 0-1.87.63v6.18h-1.5v-7.87h1.5V43a4.49 4.49 0 0 1 2.53-1 2.32 2.32 0 0 1 2.5 2.47c.07 1.2 0 5.56 0 5.56zm10.13 0v-.72a3.48 3.48 0 0 1-2.36.84c-1.94 0-3.36-1.56-3.36-3.85a4 4 0 0 1 4.1-4.3 4.47 4.47 0 0 1 1.62.27v-5h1.49v12.76zm0-6.52a2.79 2.79 0 0 0-1.6-.45c-1.26 0-2.58.67-2.58 3 0 1.89.89 3 2.58 3a2.52 2.52 0 0 0 1.6-.62zm9.79 6.64c-.81 0-1.13-.9-1.13-.9a3.2 3.2 0 0 1-2.06.94 2.09 2.09 0 0 1-2.21-2.09 2.39 2.39 0 0 1 2-2.28 11.6 11.6 0 0 1 2.25-.42v-.57a1.73 1.73 0 0 0-.25-1.21 1.55 1.55 0 0 0-1.24-.43 3.51 3.51 0 0 0-2.29.92l-.27-1.1a6.13 6.13 0 0 1 3-1c1.63 0 2.42.86 2.42 1.93 0 1.56-.07 3.07-.07 3.85 0 .93.17 1.29.71 1.29a1.91 1.91 0 0 0 .79-.18v.8a4.42 4.42 0 0 1-1.65.45zm-2.56-3.67c-.75.2-1.38.63-1.38 1.32a1.29 1.29 0 0 0 1.38 1.31 1.91 1.91 0 0 0 1.34-.67v-2.19a6.75 6.75 0 0 0-1.34.23zm8.43 3.71a1.57 1.57 0 0 1-1.62-1 7.17 7.17 0 0 1-.2-2.31v-3.44h-1.24v-1.1H122l.47-1.92h1v1.94h2.33v1h-2.4s0 1.49-.05 2.93a8.88 8.88 0 0 0 .11 2 .75.75 0 0 0 .81.58 2.62 2.62 0 0 0 1.58-.69l.18 1a3.8 3.8 0 0 1-2.3 1.01zm5.67-10.33a1 1 0 1 1 1-1 1 1 0 0 1-1 1zm-.72 10.17v-7.87h1.49v7.87zm8.44.16a4.1 4.1 0 0 1 .07-8.19 3.81 3.81 0 0 1 4 4.12 3.87 3.87 0 0 1-4.07 4.07zm0-7.09c-1.62 0-2.46 1.28-2.46 2.81 0 1.69.83 3.18 2.7 3.18 1.62 0 2.34-1.29 2.34-2.84-.04-1.82-1.01-3.15-2.62-3.15zm12.15 6.93v-5.17c-.08-1.08-.56-1.64-1.71-1.64a2.87 2.87 0 0 0-1.88.63v6.18h-1.49v-7.87h1.49V43a4.53 4.53 0 0 1 2.58-.95 2.33 2.33 0 0 1 2.5 2.47c.07 1.2 0 5.56 0 5.56zM82.54 74a3.51 3.51 0 0 1-.91.11 1.91 1.91 0 0 1-1.23-.38 15.07 15.07 0 0 1-2.09-2c-.84-.93-2.1-2.54-2.1-2.54h-2v5h-1.6V61.93h3a5.93 5.93 0 0 1 2.88.55 2.9 2.9 0 0 1 1.57 2.7 3.7 3.7 0 0 1-2.33 3.47s.94 1.17 2 2.29a16.1 16.1 0 0 0 1.69 1.63c.75.62 1.22.49 1.22.49zm-4.89-10.39a3.37 3.37 0 0 0-2.13-.61h-1.31v5a13.81 13.81 0 0 0 1.44.09 2.49 2.49 0 0 0 2.74-2.74 2.23 2.23 0 0 0-.74-1.74zm10.66 10.6a4.1 4.1 0 0 1 .07-8.21 3.8 3.8 0 0 1 4 4.12 3.87 3.87 0 0 1-4.07 4.09zm0-7.09a2.51 2.51 0 0 0-2.47 2.81c0 1.69.83 3.18 2.7 3.18 1.62 0 2.34-1.29 2.34-2.84-.04-1.82-1.01-3.15-2.61-3.15zM96 63.88a1 1 0 1 1 1-1 1 1 0 0 1-1 1zm-.72 10.17v-7.87h1.49v7.87zm13.33.02h-3.44V61.93h3.19c2.3 0 4 .76 4 2.87a3.11 3.11 0 0 1-1.76 2.7s2.66.52 2.66 2.93c.01 2.66-2.17 3.64-4.65 3.64zM108.16 63h-1.39v4.07h1.3c1.93 0 2.57-1 2.57-2.18s-.91-1.89-2.48-1.89zm2.34 5.75a4.51 4.51 0 0 0-2.48-.51h-1.25v4.55a10.35 10.35 0 0 0 1.87.11c1.55 0 2.87-.63 2.87-2.32a2.1 2.1 0 0 0-1.01-1.82zm10.67 5.42c-.81 0-1.13-.9-1.13-.9a3.16 3.16 0 0 1-2.05.94 2.09 2.09 0 0 1-2.22-2.09 2.39 2.39 0 0 1 2-2.28 11.6 11.6 0 0 1 2.25-.42v-.57a1.73 1.73 0 0 0-.25-1.21 1.55 1.55 0 0 0-1.24-.43 3.51 3.51 0 0 0-2.29.92L116 67a6.13 6.13 0 0 1 3-1c1.63 0 2.43.86 2.43 1.93 0 1.56-.08 3.07-.08 3.85 0 .93.17 1.29.71 1.29a1.85 1.85 0 0 0 .79-.18v.8a4.42 4.42 0 0 1-1.68.48zm-2.55-3.67c-.76.2-1.39.63-1.39 1.32a1.29 1.29 0 0 0 1.39 1.31 1.91 1.91 0 0 0 1.33-.67v-2.19a6.64 6.64 0 0 0-1.33.23zm11.53 3.55v-.78a4.57 4.57 0 0 1-2.59.87 2.26 2.26 0 0 1-2.45-2.43c-.07-1.21 0-5.53 0-5.53h1.49v5.17c.07 1.08.5 1.62 1.65 1.62a2.78 2.78 0 0 0 1.89-.69v-6.1h1.5v7.87zm10.19 0v-.72a3.45 3.45 0 0 1-2.35.84c-2 0-3.37-1.56-3.37-3.85a4 4 0 0 1 4.1-4.3 4.47 4.47 0 0 1 1.62.27v-5h1.5v12.76zm0-6.52a2.79 2.79 0 0 0-1.6-.45c-1.26 0-2.57.67-2.57 3 0 1.89.88 3 2.57 3a2.48 2.48 0 0 0 1.6-.62zm8.48 6.68a4.1 4.1 0 0 1 .07-8.19 3.81 3.81 0 0 1 4 4.12 3.87 3.87 0 0 1-4.07 4.07zm0-7.09c-1.62 0-2.46 1.28-2.46 2.81 0 1.69.83 3.18 2.7 3.18 1.62 0 2.34-1.29 2.34-2.84-.04-1.82-1.01-3.15-2.62-3.15zm12.04 6.93v-.78a4.57 4.57 0 0 1-2.59.87 2.26 2.26 0 0 1-2.45-2.43c-.07-1.21 0-5.53 0-5.53h1.5v5.17c.08 1.08.51 1.62 1.66 1.62a2.78 2.78 0 0 0 1.89-.69v-6.1h1.49v7.87zm5.99-10.17a1 1 0 0 1 0-2 1 1 0 1 1 0 2zm-.72 10.17v-7.87h1.5v7.87zm10.39 0v-5.17a1.51 1.51 0 0 0-1.71-1.64 2.86 2.86 0 0 0-1.87.63v6.18h-1.49v-7.87h1.49V67a4.53 4.53 0 0 1 2.58-1 2.33 2.33 0 0 1 2.5 2.47c.07 1.2 0 5.56 0 5.56zM19.33 94.75l-.71-3.17h-2.84l-1.62 3.17h-1.08L17.67 86h.77l2 8.75zm-1.58-7-1.52 3h2.19zm8.76 3.93a9.94 9.94 0 0 0-.36 2.52c0 .31.06 1 .06 1.28a2.65 2.65 0 0 1-.81 2.26 3.08 3.08 0 0 1-2.14.67 3.8 3.8 0 0 1-2.43-.85l.3-.85a3.8 3.8 0 0 0 2.26.88A1.87 1.87 0 0 0 25 97a2.39 2.39 0 0 0 .31-1.46c0-.6-.05-1-.05-1.32a2 2 0 0 1 .14-1 3.6 3.6 0 0 1-2.65 1.62c-.66 0-.95-.58-.95-1.48a5.09 5.09 0 0 1 1.64-3.9A2.54 2.54 0 0 1 25 89a2.15 2.15 0 0 1 1.25.35l.23-.35h.62s-.3 1.3-.59 2.68zm-1.63-2a1.55 1.55 0 0 0-1.13.53 5 5 0 0 0-1 3.08c0 .59.22.67.47.67a2.2 2.2 0 0 0 1.43-.8 4.21 4.21 0 0 0 1-1.55L26 90a1.74 1.74 0 0 0-1.12-.31zm4 5.07h-.94l.92-5.68h.94zm.72-7.4a.53.53 0 0 1-.54-.58.74.74 0 0 1 .73-.81c.36 0 .52.25.52.6a.73.73 0 0 1-.71.79zm5.19 2.93a1.12 1.12 0 0 0-.73-.36c-.67 0-1.44.86-1.92 2.54-.09.31-.39 2.29-.39 2.29h-.94c.11-.91.76-4.19.9-5.68h1c-.08.67-.32 1.66-.32 1.66.52-1.1 1.34-1.75 2-1.75a1 1 0 0 1 .87.48zM40.53 92a10.31 10.31 0 0 1-1.75.43 2.64 2.64 0 0 0 0 .44c0 .74.29 1.16 1 1.16A3.5 3.5 0 0 0 42 93l.4.66a4.46 4.46 0 0 1-2.77 1.18c-1 0-1.79-.45-1.79-1.9 0-1.92 1-4 3.08-4 .86 0 1.49.42 1.49 1.21s-.69 1.41-1.88 1.85zm.18-2.3c-.69 0-1.5.59-1.82 2a6.42 6.42 0 0 0 1.26-.31c.68-.23 1.25-.49 1.25-1.13 0-.45-.35-.57-.69-.57zm6.58 5.05a3.2 3.2 0 0 1-.64 0c.27-2 .73-3.88.73-4.45 0-.3 0-.42-.31-.42-.91 0-2.19 1.43-2.45 2.37-.09.35-.45 2.55-.45 2.55h-.94c.11-.91.8-4.46 1-5.68h1c-.11.67-.33 1.64-.33 1.64S45.94 89 47.52 89c.63 0 .87.36.87.94s-.41 2.61-.65 4a2.71 2.71 0 0 0 1-.3l.3.62a3.08 3.08 0 0 1-1.75.49zM53.75 90a2.71 2.71 0 0 0-1.27-.28c-.68 0-1 .26-1 .71s.31.67 1 1.13c.42.27 1.24.78 1.24 1.63 0 1.16-.83 1.7-2.12 1.7a3.16 3.16 0 0 1-1.69-.51l.13-.93a3.05 3.05 0 0 0 1.69.65c.74 0 1.05-.22 1.05-.68s-.34-.77-1-1.17-1.21-.9-1.21-1.64c0-1.12.9-1.65 2-1.65a3 3 0 0 1 1.31.24zm3.68 2a10.08 10.08 0 0 1-1.74.43 2 2 0 0 0 0 .44c0 .74.3 1.16 1 1.16a3.46 3.46 0 0 0 2.19-1l.41.66a4.46 4.46 0 0 1-2.77 1.18c-1 0-1.8-.45-1.8-1.9 0-1.92 1-4 3.08-4 .86 0 1.5.42 1.5 1.21s-.67 1.38-1.87 1.82zm.19-2.3c-.69 0-1.5.59-1.82 2a6.42 6.42 0 0 0 1.26-.31c.67-.23 1.24-.49 1.24-1.13 0-.45-.3-.57-.68-.57zm9.97 5.05a3.2 3.2 0 0 1-.64 0c.28-2 .73-3.88.73-4.45 0-.3 0-.42-.31-.42-1 0-2.21 1.62-2.39 2.23-.19 1-.38 2.06-.46 2.69h-1c.27-2 .74-3.93.74-4.5 0-.3 0-.42-.31-.42-.91 0-2.19 1.43-2.45 2.37-.09.35-.45 2.55-.45 2.55h-.94c.1-.91.79-4.46 1-5.68h1c-.1.67-.32 1.64-.32 1.64S62.84 89 64.43 89c.62 0 .85.36.85.94 0 .19-.1.78-.1.78S66.29 89 67.82 89c.63 0 .87.36.87.94s-.41 2.61-.65 4a2.79 2.79 0 0 0 1-.3l.29.62a3.08 3.08 0 0 1-1.74.49zm4.81.1a3.62 3.62 0 0 1-2.1-.65l1.47-8.68h.94l-.87 4.86a3 3 0 0 1 2.31-1.44c.87 0 1.48.65 1.48 2 0 2.14-1.01 3.91-3.23 3.91zm1.49-5c-1 0-2 1.08-2.37 2.38l-.28 1.53a2.47 2.47 0 0 0 1.31.37c1.42 0 2.09-1.28 2.09-3.07 0-.84-.28-1.24-.75-1.24zm3.71 4.9h-.93l1.48-9.23h.93zM82.25 92a10.08 10.08 0 0 1-1.74.43 2 2 0 0 0 0 .44c0 .74.3 1.16 1 1.16a3.47 3.47 0 0 0 2.2-1l.4.66a4.42 4.42 0 0 1-2.76 1.18c-1 0-1.8-.45-1.8-1.9 0-1.92 1-4 3.08-4 .86 0 1.5.42 1.5 1.21s-.68 1.38-1.88 1.82zm.18-2.3c-.69 0-1.49.59-1.82 2a6.24 6.24 0 0 0 1.26-.31c.68-.23 1.25-.49 1.25-1.13 0-.45-.35-.57-.69-.57zm7.31 5.17a3.78 3.78 0 0 1-1.24-.21l-.59 3.73H87l.78-4.75c.3-1.86.7-4.57.7-4.57h.94l-.22 1.34A3 3 0 0 1 91.49 89c.88 0 1.49.65 1.49 2 .02 1.71-.87 3.87-3.24 3.87zm1.48-5c-.93 0-2 1.06-2.34 2.36l-.26 1.57a2.13 2.13 0 0 0 1.26.35c1.37 0 2.11-1.4 2.11-3.07.01-.84-.29-1.25-.77-1.25zm5.33 4.98a2.28 2.28 0 0 1-2.46-2.55 3.07 3.07 0 0 1 3-3.35c1.14 0 2.42.42 2.42 2.52-.02 1.77-1.08 3.38-2.96 3.38zm.45-5.12c-.84 0-2 .7-2 2.65a1.52 1.52 0 0 0 1.6 1.72c.94 0 1.9-.86 1.9-2.67 0-1.21-.68-1.7-1.5-1.7zm7.47 5.06a1.91 1.91 0 0 1-.55-.05l.28-1.57a4.09 4.09 0 0 1-.78.89 3 3 0 0 1-1.9.79c-.62 0-.83-.39-.83-1s.48-3.24.74-4.82h.95c-.32 1.87-.71 3.94-.71 4.51 0 .3 0 .41.32.41.94 0 2.16-1.46 2.41-2.37.11-.46.45-2.55.45-2.55h.94l-.46 2.62C105 93.33 105 94 105 94a2.55 2.55 0 0 0 1-.3l.3.62a3.13 3.13 0 0 1-1.83.47zm6.67-4.51a1.15 1.15 0 0 0-.73-.36c-.68 0-1.44.86-1.92 2.54-.09.31-.39 2.29-.39 2.29h-.94c.1-.91.75-4.19.9-5.68h1c-.08.67-.31 1.66-.31 1.66.52-1.1 1.34-1.75 2-1.75a1 1 0 0 1 .87.48zm6.98 4.51a2 2 0 0 1-.56-.05l.29-1.57a4.09 4.09 0 0 1-.78.89 3 3 0 0 1-1.9.79c-.63 0-.83-.39-.83-1s.48-3.24.74-4.82h1c-.33 1.87-.72 3.94-.72 4.51 0 .3 0 .41.33.41.93 0 2.15-1.46 2.4-2.37.12-.46.46-2.55.46-2.55h.93l-.45 2.62a35.57 35.57 0 0 0-.38 2.27 2.56 2.56 0 0 0 1-.3l.29.62a3.08 3.08 0 0 1-1.82.55zm6.72-.04a3.15 3.15 0 0 1-.63 0c.27-2 .72-3.88.72-4.45 0-.3 0-.42-.31-.42-.91 0-2.18 1.43-2.44 2.37-.09.35-.46 2.55-.46 2.55h-.93c.1-.91.79-4.46 1-5.68h1c-.1.67-.32 1.64-.32 1.64s1.02-1.76 2.61-1.76c.62 0 .87.36.87.94s-.42 2.61-.65 4a2.71 2.71 0 0 0 1-.3l.3.62a3.13 3.13 0 0 1-1.76.49zm5.32-2.75a10.31 10.31 0 0 1-1.75.43 2.64 2.64 0 0 0 0 .44c0 .74.29 1.16 1 1.16a3.5 3.5 0 0 0 2.2-1l.4.66a4.46 4.46 0 0 1-2.77 1.18c-1 0-1.79-.45-1.79-1.9 0-1.92 1-4 3.08-4 .86 0 1.49.42 1.49 1.21s-.67 1.38-1.86 1.82zm.18-2.3c-.69 0-1.5.59-1.82 2a6.42 6.42 0 0 0 1.26-.31c.68-.23 1.25-.49 1.25-1.13-.03-.45-.35-.57-.69-.57zm8.71.3a2.73 2.73 0 0 0-1.28-.28c-.67 0-1.05.26-1.05.71s.31.67 1 1.13c.42.27 1.23.78 1.23 1.63 0 1.16-.83 1.7-2.11 1.7a3.16 3.16 0 0 1-1.69-.51l.13-.93a3.05 3.05 0 0 0 1.69.65c.74 0 1-.22 1-.68s-.34-.77-1-1.17-1.21-.9-1.21-1.64c0-1.12.89-1.65 2-1.65a3 3 0 0 1 1.31.24zm3.41 4.85A2.28 2.28 0 0 1 140 92.3a3.07 3.07 0 0 1 3-3.3c1.14 0 2.41.42 2.41 2.52-.02 1.72-1.07 3.33-2.95 3.33zm.45-5.12c-.84 0-1.95.7-1.95 2.65a1.52 1.52 0 0 0 1.55 1.72c.94 0 1.9-.86 1.9-2.67 0-1.21-.68-1.7-1.5-1.7zm7.91.4a2.78 2.78 0 0 0-1.41-.39c-1.44 0-2 1.85-2 3.12 0 .71.3 1.16 1 1.16a3.46 3.46 0 0 0 2.19-1l.41.66a4.46 4.46 0 0 1-2.77 1.18c-1 0-1.8-.45-1.8-1.9 0-2 1-4 3.06-4a3.35 3.35 0 0 1 1.53.34zm2 4.62h-.93l.92-5.68h.94zm.73-7.4a.53.53 0 0 1-.54-.58.74.74 0 0 1 .72-.81c.37 0 .52.25.52.6a.73.73 0 0 1-.7.79zm3.93 4.65a10.08 10.08 0 0 1-1.74.43 2 2 0 0 0 0 .44c0 .74.3 1.16 1 1.16a3.5 3.5 0 0 0 2.2-1l.4.66a4.46 4.46 0 0 1-2.77 1.18c-1 0-1.8-.45-1.8-1.9 0-1.92 1-4 3.09-4 .85 0 1.49.42 1.49 1.21s-.67 1.38-1.87 1.82zm.19-2.3c-.69 0-1.5.59-1.82 2a6.42 6.42 0 0 0 1.26-.31c.67-.23 1.25-.49 1.25-1.13 0-.45-.36-.57-.69-.57zm-.45-1.3-.49-.43 2.26-2 .65.51zm6.58 1.6h-1.69l-.36 2.07a9.16 9.16 0 0 0-.16 1.36c0 .46.22.59.53.59a2.26 2.26 0 0 0 1.22-.6v.83a2.7 2.7 0 0 1-1.67.6 1 1 0 0 1-1.08-1c0-.42.19-1.51.3-2.22l.26-1.56h-.88l.13-.77h.87l.46-1.44h.72l-.24 1.45h1.69zm3.3 2a10.08 10.08 0 0 1-1.74.43 2 2 0 0 0 0 .44c0 .74.3 1.16 1 1.16a3.46 3.46 0 0 0 2.19-1l.41.66a4.46 4.46 0 0 1-2.77 1.18c-1 0-1.8-.45-1.8-1.9 0-1.92 1-4 3.09-4 .85 0 1.49.42 1.49 1.21s-.67 1.38-1.87 1.82zm.19-2.3c-.69 0-1.5.59-1.82 2a6.42 6.42 0 0 0 1.26-.31c.67-.23 1.24-.49 1.24-1.13.03-.45-.35-.57-.68-.57zm-.45-1.3-.49-.43 2.26-2 .65.51zm12.91 6.35a3.15 3.15 0 0 1-.63 0c.27-2 .72-3.88.72-4.45 0-.3 0-.42-.31-.42-1 0-2.21 1.62-2.39 2.23-.18 1-.38 2.06-.46 2.69h-1c.27-2 .74-3.93.74-4.5 0-.3 0-.42-.31-.42-.91 0-2.19 1.43-2.45 2.37-.09.35-.45 2.55-.45 2.55h-.94c.11-.91.8-4.46 1-5.68h1c-.11.67-.33 1.64-.33 1.64S175 89 176.59 89c.63 0 .85.36.85.94 0 .19-.09.78-.09.78S178.45 89 180 89c.62 0 .87.36.87.94s-.42 2.61-.65 4a2.71 2.71 0 0 0 1-.3l.3.62a3.13 3.13 0 0 1-1.77.49zm5.31-2.75a10.08 10.08 0 0 1-1.74.43 2 2 0 0 0 0 .44c0 .74.3 1.16 1 1.16a3.46 3.46 0 0 0 2.19-1l.41.66a4.46 4.46 0 0 1-2.77 1.18c-1 0-1.8-.45-1.8-1.9 0-1.92 1-4 3.09-4 .85 0 1.49.42 1.49 1.21s-.67 1.38-1.87 1.82zm.19-2.3c-.69 0-1.5.59-1.82 2a6.42 6.42 0 0 0 1.26-.31c.67-.23 1.24-.49 1.24-1.13 0-.45-.35-.57-.68-.57zm3.51 5.05h-.93l.92-5.68h.94zm.73-7.4a.54.54 0 0 1-.55-.58.75.75 0 0 1 .73-.81c.37 0 .52.25.52.6a.73.73 0 0 1-.7.79zm2.17 7.4h-.94l1.48-9.23h.94zm2.87 0h-.93l1.48-9.23h.92zm4.65-2.75a10.31 10.31 0 0 1-1.75.43 2.64 2.64 0 0 0 0 .44c0 .74.3 1.16 1 1.16a3.5 3.5 0 0 0 2.2-1l.4.66a4.46 4.46 0 0 1-2.77 1.18c-1 0-1.79-.45-1.79-1.9 0-1.92 1-4 3.08-4 .86 0 1.49.42 1.49 1.21s-.67 1.38-1.86 1.82zm.18-2.3c-.69 0-1.5.59-1.82 2a6.42 6.42 0 0 0 1.26-.31c.68-.23 1.25-.49 1.25-1.13 0-.45-.35-.57-.69-.57zm6.49 5.09a1.91 1.91 0 0 1-.55-.05l.28-1.57a4.09 4.09 0 0 1-.78.89 3 3 0 0 1-1.9.79c-.62 0-.83-.39-.83-1s.48-3.24.74-4.82h.95c-.32 1.87-.71 3.94-.71 4.51 0 .3 0 .41.32.41.94 0 2.16-1.46 2.41-2.37.11-.46.45-2.55.45-2.55h.94l-.46 2.62a29.48 29.48 0 0 0-.37 2.27 2.55 2.55 0 0 0 1-.3l.3.62a3.13 3.13 0 0 1-1.79.55zm6.67-4.51a1.12 1.12 0 0 0-.73-.36c-.67 0-1.44.86-1.92 2.54-.09.31-.39 2.29-.39 2.29h-.94c.11-.91.76-4.19.9-5.68h1a16 16 0 0 1-.31 1.66c.52-1.1 1.34-1.75 2-1.75a1 1 0 0 1 .87.48zm3.21 1.72a10.31 10.31 0 0 1-1.74.43 2 2 0 0 0 0 .44c0 .74.3 1.16 1 1.16a3.5 3.5 0 0 0 2.2-1l.4.66a4.46 4.46 0 0 1-2.77 1.18c-1 0-1.79-.45-1.79-1.9 0-1.92 1-4 3.08-4 .86 0 1.49.42 1.49 1.21s-.68 1.38-1.87 1.82zm.18-2.3c-.69 0-1.5.59-1.82 2a6.42 6.42 0 0 0 1.26-.31c.68-.23 1.25-.49 1.25-1.13 0-.45-.35-.57-.69-.57z"/>
</svg>