<!--
<svg version="1.1" id="Calque_1" xmlns="http://www.w3.org/2000/svg" xmlns:xlink="http://www.w3.org/1999/xlink" x="0px" y="0px" viewBox="0 0 208.6 39.5" style="enable-background:new 0 0 208.6 39.5;" xml:space="preserve">
    <path class="st0" d="M6.9,0.1c-1.3,0-2.2,0.7-2.2,1.2C4.6,1.8,5,2.4,5.4,2.7C8.9,5.4-1,10.7,0.2,21.3c0.9,7.5,9.5,17.8,11.3,17.8  c0.1,0,0.1,0,0.2,0c1.4-0.9-4.1-10.8-5.3-14c-2.8-7.3,1.4-12,3-14.7c2.1-3.6,2.7-7,1-8.6C9.1,0.5,7.9,0.1,6.9,0.1"/>
    <path class="st0" d="M31.9,3.1c-0.1,0-0.2,0-0.3,0C18.9,3.6,17.1,19.1,17,24.7c0,0.5,0,2.9-0.5,2.9c-0.1,0-0.2-0.1-0.4-0.3  c-0.7-0.9-2.5-3.7-3.1-4.4c-0.2-0.2-0.4-0.3-0.6-0.3c-0.5,0-0.9,0.5-0.7,1.4c0.1,0.5,1.4,5.8,3.1,7.9c0.5,0.6,1.7,1.5,2.9,1.5  s2.4-0.8,3.1-3.6c1.2-4.2-0.2-21.1,14.2-23.1c1.1-0.2,1.6-1.5,0.9-2.3C35.5,4,34.1,3.1,31.9,3.1"/>
    <path class="st0" d="M39.6,18.2c-0.5-0.1-0.5-0.4-0.1-0.9c0.6-0.9,2.9-6,0-8.7c-0.2-0.2-0.5-0.4-0.9-0.6c-0.5-0.3-1.2,0-1.2,0.9  c0.1,6.6-3.2,7.8-7.7,7.9h-0.5v3l4,0.3h0.1c4.3,0.4,6.9,3.2,6.9,6.5c0,4-3.3,6.5-6.9,6.5c-1.2,0-2.4-0.2-3.4-0.9  c-0.2-0.1-0.4-0.3-0.6-0.5c0,0.5,0,6.4,0,6.4c1.4,0.7,2.9,1,5,1c5.8,0,13.1-4.3,13.1-11.8C47.2,23.5,44,19.6,39.6,18.2"/>
    <path class="st0" d="M194.2,31.5c-0.3-0.4-0.9-0.8-1.8-1.3l-0.2-0.1c-0.5-0.2-0.8-0.4-0.9-0.6c-0.2-0.2-0.2-0.4-0.2-0.6  c0-0.3,0.1-0.5,0.3-0.7s0.4-0.2,0.8-0.2c0.3,0,0.5,0,0.8,0.2c0.2,0.1,0.4,0.3,0.6,0.5l0.9-0.9l-0.1-0.1c-0.3-0.3-0.6-0.5-1-0.6  c-0.4-0.1-0.8-0.2-1.2-0.2c-0.7,0-1.3,0.2-1.7,0.6c-0.4,0.4-0.6,0.9-0.6,1.5c0,0.3,0,0.5,0.1,0.7c0.1,0.2,0.2,0.4,0.3,0.6  c0.2,0.2,0.4,0.4,0.6,0.6c0.3,0.2,0.6,0.4,1,0.6l0.2,0.1c0.5,0.3,0.9,0.5,1,0.7c0.2,0.2,0.2,0.5,0.2,0.8c0,0.3-0.1,0.6-0.3,0.8  s-0.5,0.3-0.9,0.3c-0.3,0-0.6-0.1-0.9-0.2c-0.3-0.1-0.6-0.4-0.9-0.7l-0.9,0.9l0.1,0.1c0.4,0.4,0.8,0.7,1.2,0.9  c0.4,0.2,0.9,0.3,1.4,0.3c0.8,0,1.4-0.2,1.8-0.6c0.4-0.4,0.7-1,0.7-1.7C194.7,32.3,194.6,31.8,194.2,31.5 M184,33.8  c-0.1,0-0.1,0-0.2,0c0,0-0.1,0-0.1,0.1l0,0c0,0,0.1-0.1,0.1-0.1c0,0,0-0.1,0-0.2v-1.8c0-0.1,0-0.1,0-0.1c0,0,0-0.1-0.1-0.1l0,0  c0,0,0.1,0.1,0.1,0.1s0.1,0,0.2,0h2.7v-1.2H184c-0.1,0-0.1,0-0.2,0c0,0-0.1,0-0.1,0.1l0,0c0-0.1,0.1-0.1,0.1-0.1c0,0,0-0.1,0-0.1  v-1.6c0-0.1,0-0.1,0-0.1s0-0.1-0.1-0.1l0,0c0.1,0,0.1,0.1,0.1,0.1c0,0,0.1,0,0.1,0h3.1L187,27h-4.5v8.1h4.5l0.1-1.2L184,33.8  L184,33.8z M177.3,33.8c-0.1,0-0.1,0-0.2,0c0,0-0.1,0-0.1,0.1l-0.1,0c0,0,0.1-0.1,0.1-0.1c0,0,0-0.1,0-0.2V27h-1.3v8.1h4.1l0.2-1.2  L177.3,33.8L177.3,33.8z M170.6,33.8c-0.1,0-0.1,0-0.2,0c0,0-0.1,0-0.1,0.1l0,0c0,0,0.1-0.1,0.1-0.1c0,0,0-0.1,0-0.2V27H169v8.1h4.1  l0.2-1.2L170.6,33.8L170.6,33.8z M163,33.8c-0.1,0-0.1,0-0.2,0c0,0-0.1,0-0.1,0.1l0,0c0,0,0.1-0.1,0.1-0.1c0,0,0-0.1,0-0.2v-1.8  c0-0.1,0-0.1,0-0.1c0,0,0-0.1-0.1-0.1l0.1,0c0,0,0.1,0.1,0.1,0.1s0.1,0,0.2,0h2.7v-1.2H163c-0.1,0-0.1,0-0.2,0c0,0-0.1,0-0.1,0.1  l0,0c0-0.1,0.1-0.1,0.1-0.1c0,0,0-0.1,0-0.1v-1.6c0-0.1,0-0.1,0-0.1s0-0.1-0.1-0.1l0,0c0.1,0,0.1,0.1,0.1,0.1c0,0,0.1,0,0.1,0h3.1  L166,27h-4.5v8.1h4.5l0.1-1.2L163,33.8L163,33.8z M156.7,31.1c0-0.1-0.1-0.1-0.1-0.1c0,0-0.1,0-0.1,0v0c0,0,0.1,0,0.1,0  c0,0,0.1-0.1,0.1-0.1l2.1-3.8h-1.5l-1.2,2.3c-0.1,0.2-0.2,0.3-0.2,0.5c0,0.1-0.1,0.3-0.1,0.5h-0.1c0-0.2-0.1-0.4-0.1-0.5  c0-0.1-0.1-0.3-0.2-0.5l-1.2-2.3h-1.5l2.1,3.8c0,0.1,0.1,0.1,0.1,0.1c0,0,0.1,0,0.1,0.1v0c0,0-0.1,0-0.1,0.1c0,0-0.1,0.1-0.1,0.1  l-2.2,4h1.5l1.3-2.5c0.1-0.2,0.2-0.4,0.2-0.5c0-0.1,0.1-0.3,0.1-0.5h0.1c0,0.2,0,0.4,0.1,0.5c0,0.1,0.1,0.3,0.2,0.5l1.3,2.5h1.5  L156.7,31.1L156.7,31.1z M150.4,27h-1.3v4.7c0,0.8-0.1,1.4-0.5,1.7c-0.3,0.4-0.8,0.6-1.4,0.6s-1.1-0.2-1.4-0.6  c-0.3-0.4-0.5-1-0.5-1.7V27H144v4.6c0,0.7,0.1,1.2,0.2,1.6c0.1,0.4,0.3,0.8,0.6,1.1c0.3,0.3,0.7,0.6,1.1,0.7  c0.4,0.2,0.9,0.3,1.3,0.3s0.9-0.1,1.3-0.3s0.8-0.4,1.1-0.7c0.3-0.3,0.5-0.7,0.6-1.1c0.1-0.4,0.2-1,0.2-1.6  C150.4,31.5,150.4,27,150.4,27z M139.5,31.9c-0.1-0.1-0.2-0.2-0.3-0.3s-0.2-0.2-0.4-0.3l0,0c0.1,0,0.2,0,0.3,0.1s0.2,0,0.2,0  c0.5,0,0.9-0.2,1.3-0.6c0.3-0.4,0.5-0.9,0.5-1.5c0-0.7-0.2-1.3-0.7-1.7c-0.4-0.4-1.1-0.6-2-0.6h-2.1v8.1h1.3v-2.9c0-0.3,0-0.5,0-0.7  s0-0.3-0.1-0.5l0.1,0c0.1,0.2,0.1,0.3,0.2,0.4c0.1,0.1,0.2,0.3,0.3,0.5l2.1,3.1h1.4L139.5,31.9L139.5,31.9z M139.6,30.1  c-0.2,0.2-0.5,0.3-1,0.3h-0.8c-0.1,0-0.1,0-0.2,0c0,0-0.1,0-0.1,0.1l-0.1,0c0,0,0.1-0.1,0.1-0.1c0,0,0-0.1,0-0.1v-1.9  c0-0.1,0-0.1-0.1-0.2c0,0,0-0.1-0.1-0.1l0.1,0c0,0,0.1,0.1,0.1,0.1c0,0,0.1,0,0.1,0h0.8c0.4,0,0.8,0.1,1,0.3  c0.2,0.2,0.3,0.5,0.3,0.9S139.8,30,139.6,30.1 M133.1,31.4c-0.3-0.3-0.6-0.5-1.1-0.6v-0.1c0.4-0.1,0.7-0.3,0.9-0.6  c0.2-0.3,0.3-0.6,0.3-1c0-0.7-0.2-1.2-0.7-1.6c-0.4-0.4-1.1-0.5-2-0.5h-2.3v8.1h2.4c0.9,0,1.6-0.2,2.1-0.7s0.7-1,0.7-1.8  C133.5,32.1,133.4,31.7,133.1,31.4 M131.7,30c-0.2,0.2-0.5,0.3-0.9,0.3h-1.1c-0.1,0-0.1,0-0.1,0c0,0-0.1,0-0.1,0.1l-0.1,0  c0,0,0,0,0,0c0.1-0.1,0.1-0.2,0.1-0.3v-1.7c0,0,0-0.1,0-0.1c0,0,0-0.1-0.1-0.1l0.1,0c0,0,0.1,0.1,0.1,0.1c0,0,0.1,0,0.2,0h0.9  c0.5,0,0.8,0.1,1,0.3s0.3,0.4,0.3,0.8S131.9,29.8,131.7,30 M131.9,33.6c-0.3,0.2-0.6,0.3-1.1,0.3h-1.1c-0.1,0-0.1,0-0.2,0  c0,0-0.1,0-0.1,0.1l0,0c0,0,0.1-0.1,0.1-0.1s0-0.1,0-0.2v-2.1c0-0.1,0-0.1,0-0.1c0,0,0-0.1-0.1-0.1l0,0c0.1,0,0.1,0.1,0.1,0.1  c0,0,0.1,0,0.2,0h1c0.3,0,0.5,0,0.7,0.1c0.2,0.1,0.3,0.1,0.5,0.3c0.1,0.1,0.2,0.2,0.2,0.4s0.1,0.3,0.1,0.5  C132.3,33,132.2,33.4,131.9,33.6 M125.2,31.6h-2.8v1.2h2.8V31.6z M116.8,33.8c-0.1,0-0.1,0-0.2,0c0,0-0.1,0-0.1,0.1l0,0  c0,0,0.1-0.1,0.1-0.1c0,0,0-0.1,0-0.2v-1.8c0-0.1,0-0.1,0-0.1c0,0,0-0.1-0.1-0.1l0,0c0,0,0.1,0.1,0.1,0.1s0.1,0,0.2,0h2.7v-1.2h-2.7  c-0.1,0-0.1,0-0.2,0c0,0-0.1,0-0.1,0.1l-0.1,0c0-0.1,0.1-0.1,0.1-0.1c0,0,0-0.1,0-0.1v-1.6c0-0.1,0-0.1,0-0.1c0,0,0-0.1-0.1-0.1l0,0  c0.1,0,0.1,0.1,0.2,0.1c0,0,0.1,0,0.1,0h3.1l-0.1-1.2h-4.5v8.1h4.5l0.2-1.2L116.8,33.8L116.8,33.8z M111.9,27h-1.3v8.1h1.3V27z   M107.3,27H106v5c0,0.2,0,0.5,0.1,0.7s0.1,0.5,0.2,0.9h-0.1c-0.1-0.3-0.2-0.6-0.3-0.8s-0.2-0.4-0.4-0.6l-3.6-5.2h-1.2v8.1h1.3v-5  c0-0.2,0-0.4-0.1-0.6c0-0.2-0.1-0.5-0.2-1h0.1c0.1,0.4,0.2,0.6,0.3,0.8c0.1,0.2,0.2,0.4,0.3,0.6l3.6,5.2h1.2L107.3,27L107.3,27z   M96.8,28c-0.8-0.8-1.8-1.2-3-1.2s-2.1,0.4-2.9,1.2c-0.8,0.8-1.1,1.8-1.1,3c0,1.2,0.4,2.2,1.1,3c0.8,0.8,1.7,1.2,2.9,1.2  s2.2-0.4,2.9-1.2c0.8-0.8,1.1-1.8,1.1-3S97.5,28.8,96.8,28 M95.8,33.2c-0.5,0.5-1.2,0.8-2,0.8s-1.5-0.3-2-0.8s-0.8-1.2-0.8-2.1  s0.2-1.6,0.8-2.1s1.2-0.8,2-0.8s1.4,0.3,1.9,0.8s0.8,1.2,0.8,2.1S96.3,32.6,95.8,33.2 M85.3,33.8c-0.1,0-0.1,0-0.2,0  c0,0-0.1,0-0.1,0.1l-0.1,0c0,0,0.1-0.1,0.1-0.1s0-0.1,0-0.2V27h-1.3v8.1h4.1l0.2-1.2L85.3,33.8L85.3,33.8z M78.5,33.8  c-0.1,0-0.1,0-0.2,0c0,0-0.1,0-0.1,0.1l-0.1,0c0,0,0.1-0.1,0.1-0.1s0-0.1,0-0.2V27h-1.3v8.1H81l0.2-1.2L78.5,33.8L78.5,33.8z   M71.6,27h-1.2l-2.9,8.1h1.3l0.9-2.4h2.7l0.9,2.4h1.3L71.6,27z M72,31.5c0,0-0.1,0-0.1,0s-0.1,0-0.1,0h-1.5c0,0-0.1,0-0.1,0  c0,0-0.1,0-0.1,0l0-0.1c0,0,0.1,0,0.1-0.1c0,0,0-0.1,0.1-0.1l0.8-2.2c0-0.1,0.1-0.2,0.1-0.4c0-0.2,0-0.4,0-0.6H71c0,0.2,0,0.4,0,0.6  c0,0.2,0.1,0.3,0.1,0.4l0.8,2.2c0,0,0,0.1,0.1,0.1C72,31.4,72,31.4,72,31.5L72,31.5L72,31.5z M64.9,27l-1.5,5.3  c-0.1,0.2-0.1,0.4-0.1,0.6c0,0.2,0,0.4-0.1,0.8h-0.1c0-0.4-0.1-0.7-0.1-0.8c0-0.2-0.1-0.3-0.1-0.5l-1.4-4.1l-1.4,4.1  c-0.1,0.2-0.1,0.4-0.2,0.5c0,0.2-0.1,0.5-0.1,0.8h-0.1c0-0.4,0-0.7-0.1-0.8c0-0.2-0.1-0.3-0.1-0.6L58,27h-1.4l2.5,8.1h1.2l1-3.2  c0-0.1,0.1-0.2,0.1-0.4c0-0.2,0-0.4,0.1-0.7h0.1c0,0.3,0,0.5,0.1,0.7c0,0.2,0.1,0.3,0.1,0.4l1,3.2h1.2l2.5-8.1L64.9,27L64.9,27z"/>
    <path class="st0" d="M194.5,6.9h-2.3V16c0,0.4,0,0.9,0.1,1.3c0.1,0.5,0.2,1,0.3,1.6l-0.1,0c-0.2-0.6-0.4-1-0.6-1.4s-0.4-0.8-0.6-1.1  l-6.5-9.5h-2.2v14.7h2.4v-9.1c0-0.4,0-0.8-0.1-1.2c-0.1-0.4-0.2-1-0.4-1.8l0.1,0c0.2,0.7,0.4,1.1,0.6,1.5c0.1,0.3,0.4,0.7,0.6,1.1  l6.5,9.5h2.2L194.5,6.9L194.5,6.9z M175.6,8.8c-1.4-1.4-3.2-2.1-5.4-2.1s-3.9,0.7-5.2,2.2c-1.4,1.4-2.1,3.3-2.1,5.5s0.7,4.1,2.1,5.5  c1.4,1.4,3.1,2.1,5.3,2.1s3.9-0.7,5.3-2.1s2.1-3.2,2.1-5.5S176.9,10.2,175.6,8.8 M173.8,18.1c-0.9,1-2.1,1.5-3.6,1.5  s-2.7-0.5-3.6-1.5c-0.9-1-1.4-2.3-1.4-3.9s0.5-2.9,1.4-3.9c0.9-1,2.1-1.5,3.6-1.5s2.6,0.5,3.6,1.5c0.9,1,1.4,2.3,1.4,3.8  S174.7,17.2,173.8,18.1 M157.7,6.9h-2.4v14.8h2.4V6.9L157.7,6.9z M150.6,6.9h-8.7l-0.3,2.2h3.1c0.1,0,0.2,0,0.3,0  c0.1,0,0.1-0.1,0.2-0.1l0.1,0.1c-0.1,0.1-0.1,0.2-0.1,0.3c0,0.1,0,0.1,0,0.2v12.1h2.4V9.5c0-0.1,0-0.2,0-0.3c0-0.1-0.1-0.1-0.1-0.2  l0.1-0.1c0.1,0.1,0.2,0.1,0.2,0.1c0.1,0,0.2,0,0.3,0h3.1L150.6,6.9L150.6,6.9z M134.4,6.9h-2.1l-5.4,14.7h2.4l1.6-4.4h4.9l1.6,4.4  h2.4C139.8,21.6,134.4,6.9,134.4,6.9z M135.2,15.1c-0.1,0-0.1-0.1-0.2-0.1s-0.1,0-0.2,0H132c-0.1,0-0.2,0-0.2,0  c-0.1,0-0.1,0-0.2,0.1l-0.1-0.1c0.1-0.1,0.1-0.1,0.1-0.1c0-0.1,0.1-0.1,0.1-0.2l1.4-4c0.1-0.2,0.1-0.4,0.1-0.7s0.1-0.7,0.1-1.1h0.1  c0,0.4,0,0.8,0.1,1.1c0,0.3,0.1,0.6,0.1,0.7l1.4,4c0,0.1,0.1,0.1,0.1,0.2C135.2,15,135.2,15,135.2,15.1L135.2,15.1L135.2,15.1z   M119.4,15.8c-0.1-0.2-0.3-0.4-0.5-0.6c-0.2-0.2-0.4-0.3-0.7-0.5l0-0.1c0.2,0.1,0.3,0.1,0.5,0.1c0.2,0,0.3,0,0.4,0  c0.9,0,1.7-0.4,2.3-1.1c0.6-0.7,0.9-1.6,0.9-2.7c0-1.3-0.4-2.4-1.2-3.1c-0.8-0.7-2-1.1-3.6-1.1h-3.9v14.7h2.3v-5.2c0-0.6,0-1,0-1.2  s-0.1-0.6-0.2-0.9l0.1,0c0.1,0.3,0.2,0.6,0.4,0.8c0.1,0.2,0.3,0.5,0.6,0.9l3.8,5.6h2.6L119.4,15.8L119.4,15.8z M119.6,12.7  c-0.4,0.3-1,0.5-1.8,0.5h-1.4c-0.1,0-0.2,0-0.3,0c-0.1,0-0.1,0.1-0.2,0.1l-0.1-0.1c0.1-0.1,0.1-0.2,0.2-0.2c0-0.1,0.1-0.2,0.1-0.3  V9.4c0-0.1-0.1-0.2-0.1-0.3s-0.1-0.1-0.1-0.2l0.1-0.1c0.1,0.1,0.2,0.1,0.2,0.1c0.1,0,0.2,0,0.3,0h1.4c0.8,0,1.4,0.2,1.8,0.5  c0.4,0.3,0.6,0.9,0.6,1.6S120,12.3,119.6,12.7 M103.5,2.4l-1,2.8h1.8l1.9-2.8H103.5L103.5,2.4z M102.9,19.4c-0.1,0-0.2,0-0.3,0  c-0.1,0-0.1,0.1-0.2,0.1l-0.1-0.1c0.1-0.1,0.1-0.1,0.1-0.2c0-0.1,0-0.2,0-0.3v-3.2c0-0.1,0-0.2,0-0.3c0-0.1-0.1-0.2-0.1-0.2l0.1-0.1  c0.1,0.1,0.2,0.1,0.2,0.1c0.1,0,0.2,0,0.3,0h5v-2.2h-5c-0.1,0-0.2,0-0.3,0c-0.1,0-0.2,0.1-0.2,0.1l-0.1-0.1c0.1-0.1,0.1-0.2,0.1-0.3  c0-0.1,0-0.1,0-0.2v-3c0-0.1,0-0.2,0-0.3s-0.1-0.2-0.1-0.2l0.1-0.1c0.1,0.1,0.2,0.1,0.3,0.1s0.2,0,0.3,0h5.7l-0.2-2.3h-8.2v14.7h8.2  l0.3-2.3L102.9,19.4L102.9,19.4z M93,9c-1.5-1.4-3.3-2.1-5.6-2.1h-3.9v14.7h3.9c2.3,0,4.2-0.7,5.7-2.1c1.5-1.4,2.2-3.1,2.2-5.3  S94.5,10.4,93,9 M91.4,18c-1,1-2.3,1.5-3.8,1.5h-1.2c-0.1,0-0.2,0-0.3,0c-0.1,0-0.1,0.1-0.2,0.1l-0.1-0.1c0.1-0.1,0.1-0.1,0.2-0.2  c0-0.1,0-0.2,0-0.3V9.6c0-0.1,0-0.2,0-0.3c0-0.1-0.1-0.1-0.1-0.2L85.8,9C85.9,9,86,9.1,86.1,9.1c0.1,0,0.2,0,0.3,0h1.3  c1.5,0,2.8,0.5,3.8,1.5s1.5,2.2,1.5,3.7S92.4,17,91.4,18 M73.3,2.4l-1,2.8H74l1.9-2.8H73.3L73.3,2.4z M72.7,19.4c-0.1,0-0.2,0-0.3,0  c-0.1,0-0.1,0.1-0.2,0.1l-0.1-0.1c0.1-0.1,0.1-0.1,0.1-0.2c0-0.1,0-0.2,0-0.3v-3.2c0-0.1,0-0.2,0-0.3c0-0.1-0.1-0.2-0.1-0.2l0.1-0.1  c0.1,0.1,0.2,0.1,0.2,0.1c0.1,0,0.2,0,0.3,0h5v-2.2h-5c-0.1,0-0.2,0-0.3,0c-0.1,0-0.1,0.1-0.2,0.1l-0.1-0.1c0.1-0.1,0.1-0.2,0.1-0.3  c0-0.1,0-0.1,0-0.2v-3c0-0.1,0-0.2,0-0.3s-0.1-0.2-0.1-0.2L72.2,9c0.1,0.1,0.2,0.1,0.3,0.1s0.2,0,0.2,0h5.7l-0.2-2.3H70v14.7h8.2  l0.3-2.3L72.7,19.4L72.7,19.4z M65.1,6.9h-8.3v14.7h2.4v-5.9c0-0.1,0-0.2,0-0.3c0-0.1-0.1-0.1-0.1-0.2l0.1-0.1  c0.1,0.1,0.2,0.1,0.2,0.1c0.1,0,0.2,0,0.3,0h4.9V13h-5c-0.2,0-0.3,0-0.3,0c-0.1,0-0.1,0.1-0.2,0.1L59,13.1c0.1-0.1,0.2-0.2,0.2-0.3  c0-0.1,0-0.1,0-0.2v-3c0-0.1-0.1-0.2-0.1-0.3c0-0.1-0.1-0.1-0.1-0.2L59.1,9c0.1,0.1,0.2,0.1,0.2,0.1c0.1,0,0.2,0,0.3,0h5.9  C65.5,9.2,65.1,6.9,65.1,6.9z"/>
</svg>-->
<svg xmlns="http://www.w3.org/2000/svg" fill="none" viewBox="0 0 597 572">
    <g clip-path="url(#a)">
        <path fill="#DC0814"
              d="M166.8 49.4c-10.3 0-17.3 5.7-17.7 9.6-.4 4.2 2.3 8.4 6 11.3 27 21.1-51 62.3-41.4 146.1 6.8 59.3 75.1 140.2 89.2 140.2.5 0 1-.1 1.3-.4 11-7-32-84.7-41.8-110.3-21.8-57.5 11.1-94.3 24-115.7 16.8-28.2 21-54.8 7.8-67.7-10-9.8-19.7-13-27.4-13"/>
        <path fill="#FBBA00"
              d="m363.4 72.8-2.8.1c-99.4 4.5-114 126.4-114.2 170.6 0 3.8.3 23.1-4.2 23.1-.9 0-2-.8-3.3-2.7-5.2-7.3-20-28.8-24.3-34.6a6 6 0 0 0-4.7-2.5c-3.5 0-6.9 3.7-5.3 11 .7 3.8 10.6 45.4 24.8 62.6 4 5 13.4 12 23.1 12 9.7 0 19.2-6.7 24.7-28.3 9.5-33.4-1.8-166.4 111.5-181.6 9-1.2 12.4-11.8 7.1-18-3.7-4.5-15-11.7-32.4-11.7"/>
        <path fill="#00448A"
              d="M424 192c-3.5-1-3.7-3.3-1-7.2 4.5-6.8 23-47.5.2-68.9a28.2 28.2 0 0 0-6.9-4.8c-4.2-2-9.4.2-9.4 7.2.6 51.6-24.8 61.5-60.3 62h-4.3V204l31.5 2.1h.6c34 2.8 54.4 25.2 54.4 51.1 0 31.1-25.8 51.3-54.4 51.3a51.3 51.3 0 0 1-32.2-10.5v50.7a87.9 87.9 0 0 0 39.1 8.2c45.8 0 103-33.7 103-92.7 0-30.7-25.5-61.2-60.3-72.1"/>
        <path fill="#1D1D1B"
              d="M544.7 508.4a21.1 21.1 0 0 0-6.4-4.5l-.7-.4c-1.7-.9-2.8-1.6-3.4-2.2a3 3 0 0 1-.8-2.2c0-1 .3-1.9 1-2.4.5-.6 1.5-.8 2.7-.8 1 0 2 .2 2.7.6.8.3 1.6 1 2.3 1.8l3.2-3-.3-.4a11.6 11.6 0 0 0-7.8-3.1c-2.6 0-4.6.7-6.1 2a7 7 0 0 0-2.3 5.5c0 .9.2 1.8.4 2.5.3.8.7 1.5 1.2 2.1a38.4 38.4 0 0 0 6 4.3l.8.3c1.8 1 3 2 3.7 2.7.6.8.9 1.7.9 2.7 0 1.2-.4 2.2-1.2 3-.8.7-1.9 1-3.3 1-1.1 0-2.1-.2-3.1-.8-1-.5-2-1.4-3.2-2.6l-3.2 3.2.3.3a12.3 12.3 0 0 0 9.3 4c2.8 0 5-.7 6.6-2.1a7.8 7.8 0 0 0 2.4-6.1c0-2.2-.6-4-1.7-5.3M508 517h-.6l-.4.3-.1-.1.2-.5v-7.5l-.2-.5.1-.1.4.2.6.1h9.9v-4.4h-10.4c-.2 0-.3.2-.5.3l-.2-.2c.2-.2.3-.3.3-.5v-6.9a3 3 0 0 0-.2-.5l.1-.2.5.3h11.8l-.5-4.4h-16.3v29.1h16.3l.5-4.5H508Zm-24 0h-.7l-.4.3-.1-.1.2-.4v-24.5h-4.7v29.2H493l.7-4.5H484Zm-24.3 0h-.6l-.4.3-.2-.1.3-.4v-24.5H454v29.2h14.8l.8-4.5h-10Zm-27.3 0h-.6l-.5.3-.1-.1.2-.5.1-.5v-7l-.3-.5.2-.1.4.2.6.1h9.8v-4.4h-10.4l-.5.3-.1-.2.2-.5.1-.5v-5.9a1.8 1.8 0 0 0-.3-1l.1-.2.6.3h11.7l-.5-4.4h-16.3v29.1h16.3l.5-4.5h-11.2Zm-22.6-9.7-.3-.5-.4-.2v-.1l.4-.2.3-.5 7.7-13.4h-5.3l-4.3 8.2-.8 1.5-.3 2h-.2c0-.8-.1-1.5-.3-1.9 0-.4-.3-1-.7-1.6l-4.4-8.3H396l7.6 13.5.3.5.4.2v.1a1 1 0 0 0-.4.3l-.3.4-7.9 14.2h5.3l4.6-8.9.8-1.8.3-1.8h.2l.2 2 .8 1.6 4.6 8.9h5.3l-8-14.2Zm-22.7-15h-4.8v17c0 2.7-.6 4.8-1.7 6.2-1.1 1.3-2.8 2-5 2-2.4 0-4-.7-5.2-2-1.1-1.4-1.6-3.5-1.6-6.3v-16.9H364v16.4c0 2.4.2 4.4.7 6a9.6 9.6 0 0 0 2.2 3.8 12.2 12.2 0 0 0 8.6 3.6c1.7 0 3.3-.4 4.8-1s2.8-1.5 3.9-2.6c1-1 1.7-2.3 2.2-3.9.5-1.5.7-3.5.7-5.9v-16.4ZM348 510l-1-1c-.4-.4-.9-.8-1.4-1v-.2a7.5 7.5 0 0 0 1.8.3c1.8 0 3.4-.8 4.6-2.2a7.8 7.8 0 0 0 1.9-5.3c0-2.6-.8-4.7-2.5-6-1.6-1.5-4-2.2-7-2.2h-7.8v29.2h4.6v-10.3a27.5 27.5 0 0 0-.3-4.2h.2a12.2 12.2 0 0 0 1.9 3.4l7.4 11h5.3L348 510Zm.4-6.2c-.8.7-2 1-3.6 1H342l-.6.1-.4.3-.2-.2.4-.5v-7.2l-.1-.6-.3-.4.2-.1.4.2h3.4c1.6 0 2.8.4 3.6 1 .7.8 1 1.8 1 3.2 0 1.5-.3 2.6-1 3.2m-23.4 4.6c-1-1.2-2.3-2-4-2.3v-.2a5.9 5.9 0 0 0 3.2-2c.7-1 1-2.3 1-3.8 0-2.5-.8-4.4-2.3-5.7-1.6-1.3-4-2-7-2h-8.2v29.2h8.7c3.2 0 5.7-.8 7.4-2.4a8.1 8.1 0 0 0 2.7-6.3c0-1.8-.5-3.3-1.5-4.5m-5.2-5c-.8.7-1.8 1-3.2 1h-4.3a2 2 0 0 0-.4.4l-.2-.2c.3-.4.4-.7.4-1v-6.7l-.4-.6.2-.1.4.2H316.1c1.7 0 3 .4 3.7 1 .7.6 1 1.6 1 3 0 1.2-.3 2.3-1 3m.9 12.8c-1 .9-2.2 1.3-3.9 1.3h-4.4l-.5.3-.1-.2.2-.4v-8.6c0-.1 0-.3-.2-.5l.1-.2.5.3h4.3c1 0 1.8.2 2.5.4.6.2 1.1.5 1.6 1a4.7 4.7 0 0 1 1.2 3.2c0 1.5-.4 2.6-1.3 3.4m-24-7.3h-10.1v4.3h10v-4.3Zm-30.4 8.2h-.6l-.5.3-.1-.1.2-.5.1-.5v-6.5a1.5 1.5 0 0 0-.3-1l.2-.1.4.2.6.1h9.8v-4.4h-9.8a2 2 0 0 0-.6 0l-.5.3-.1-.2.3-.5v-6.9l-.3-.5.1-.2.6.3h11.7l-.5-4.4h-16.3v29.1H277l.5-4.5h-11.2Zm-17.5-24.7H244v29.2h4.8v-29.2Zm-16.7 0h-4.6v18a36.3 36.3 0 0 0 .9 5.9h-.2a27.5 27.5 0 0 0-2.4-5.1L213 492.3h-4.3v29.2h4.7v-18c0-.7 0-1.5-.2-2.3l-.7-3.5h.2c.5 1.3.8 2.3 1.2 2.9.2.6.7 1.3 1.2 2.1l12.9 18.8h4.3v-29.1Zm-37.7 3.7a14.1 14.1 0 0 0-10.6-4.2c-4.3 0-7.7 1.4-10.4 4.3a15 15 0 0 0-4 10.8c0 4.3 1.3 8 4 10.9A14 14 0 0 0 184 522a14 14 0 0 0 10.5-4.2 15 15 0 0 0 4.1-10.9 15 15 0 0 0-4-10.9m-3.5 18.5a9.2 9.2 0 0 1-7 3c-3 0-5.4-1-7.2-3-1.8-1.9-2.6-4.4-2.6-7.6 0-3.2.9-5.7 2.7-7.7 1.8-1.9 4.1-2.9 7-2.9 3 0 5.3 1 7 3 1.9 2 2.8 4.5 2.8 7.6a11 11 0 0 1-2.7 7.6Zm-38 2.5h-.6l-.4.3-.1-.1.2-.4.1-.6v-23.9h-4.8v29.2h14.8l.7-4.5H153Zm-24.2 0h-.6a1 1 0 0 0-.4.3l-.2-.1.3-.4v-24.5h-4.8v29.2H138l.8-4.5h-10Zm-25-24.7h-4.1L89 521.5h4.8l3.1-8.8h9.6l3 8.8h4.9l-10.6-29.2Zm1.7 16.3a2.4 2.4 0 0 0-1-.2H99l-.4.1-.5.1-.1-.2.3-.2.1-.4 2.8-8 .3-1.5.2-2.1h.2a29.6 29.6 0 0 0 .4 3.6l2.8 8c0 .1 0 .3.2.4l.3.3-.1.1Zm-25.8-16.3-5.5 19.2-.5 2-.1 3h-.3a43.1 43.1 0 0 0-.9-5l-5-14.8-5 14.8-.5 2-.4 3h-.2a14 14 0 0 0-.6-5L55 492.3h-5l8.8 29.2h4.3l3.6-11.6.3-1.6.2-2.4h.2a31.5 31.5 0 0 0 .5 4l3.6 11.6H76l8.9-29.2h-5.1ZM545.6 420.3h-8.4v32.5a69.8 69.8 0 0 0 1.6 10.6l-.4.1a51.5 51.5 0 0 0-4.4-9.1l-23.3-34.1h-7.8v53h8.4v-32.7l-.3-4.2c-.2-1.3-.6-3.5-1.3-6.3l.4-.1a28.7 28.7 0 0 0 4.4 9.1l23.3 34.1h7.8v-53 .1Zm-68 6.7c-5-5.1-11.4-7.7-19.3-7.7-8 0-14 2.6-18.9 7.8-5 5.1-7.4 11.7-7.4 19.6 0 8 2.5 14.6 7.4 19.8 5 5.1 11.3 7.7 19.1 7.7 7.8 0 14-2.6 19-7.7 5-5.2 7.5-11.7 7.5-19.7s-2.5-14.7-7.4-19.8m-6.3 33.6a16.7 16.7 0 0 1-12.8 5.3c-5.3 0-9.6-1.8-12.9-5.3a19.7 19.7 0 0 1-4.8-13.9c0-5.7 1.6-10.4 4.9-13.9 3.3-3.5 7.6-5.3 12.9-5.3 5.3 0 9.4 1.8 12.7 5.4 3.3 3.6 5 8.2 5 13.8 0 5.7-1.7 10.4-5 14m-57.7-40.5H405v53h8.7v-53Zm-25.7.1h-31.3l-1.1 8h11c.4 0 .8 0 1-.2.3 0 .5-.2.8-.5l.3.3-.5 1-.1.9v43.4h8.5v-44.4l-.6-.9.4-.3.8.5 1 .1h11l-1.2-8v.1Zm-58.1 0h-7.6l-19.3 53h8.8l5.6-16h17.4l5.6 16h8.7l-19.3-53Zm2.9 29.6-.8-.2h-11a4.3 4.3 0 0 0-1.6.2l-.2-.3.5-.6.3-.7 5-14.5a44 44 0 0 0 .8-6.5h.5a48.7 48.7 0 0 0 .8 6.5l5 14.5c0 .3.2.6.3.7l.6.6-.2.3Zm-56.9 2.3c-.5-.7-1-1.4-1.8-2a16 16 0 0 0-2.5-1.8l.1-.3a21.6 21.6 0 0 0 3.3.5c3.3 0 6-1.3 8.3-3.9 2.2-2.6 3.4-5.7 3.4-9.5 0-4.8-1.5-8.5-4.5-11-2.9-2.6-7.2-3.9-12.8-3.9h-14v53h8.4v-18.7a46.1 46.1 0 0 0-.8-7.7l.4-.1a22.4 22.4 0 0 0 3.5 6.3l13.6 20.1h9.4l-14-21Zm.8-11.2c-1.4 1.2-3.6 1.8-6.5 1.8H265c-.5 0-.8 0-1 .2-.3 0-.6.2-.8.4l-.3-.3.6-.9.2-.9v-12.1l-.4-1a4 4 0 0 0-.4-.9l.3-.3.8.5 1 .1h5.1c3 0 5 .6 6.4 1.9 1.4 1.2 2.1 3.1 2.1 5.7s-.7 4.6-2 5.8m-58-37-3.7 10.3h6.4l6.9-10.3h-9.6Zm-2 61-1.1.2c-.3 0-.5.2-.8.5l-.3-.3.5-.8.1-1v-11.7a3 3 0 0 0-.6-1.9l.3-.3.8.5 1 .1h18v-8h-18l-1 .1a3 3 0 0 0-.8.5l-.3-.3.5-1 .1-.8V430a3 3 0 0 0-.6-1.9l.3-.3 1 .6H237l-.9-8h-29.6v52.9H236l1-8.2h-20.4ZM181 427.9c-5.3-5-12-7.5-20-7.5h-14.3v53h14c8.3 0 15.2-2.6 20.4-7.6a25 25 0 0 0 7.8-19c0-7.6-2.6-14-7.9-19m-6 32.4a19.2 19.2 0 0 1-13.9 5.2H157l-1 .1c-.3 0-.5.2-.8.5l-.3-.3.5-.8v-36l-.5-.9.3-.3.8.5 1 .1h4.6c5.4 0 10 1.8 13.5 5.3 3.6 3.5 5.4 8 5.4 13.3 0 5.3-1.8 9.8-5.4 13.3M110 404l-3.7 10.3h6.4l6.9-10.3h-9.7Zm-2 61-1.1.2c-.3 0-.5.2-.8.5l-.3-.3.5-.8.1-1v-11.7l-.1-1-.5-.9.3-.3.8.5 1 .1h18v-8h-18l-1 .1a3 3 0 0 0-.8.5l-.3-.3.5-1 .1-.8V430a3 3 0 0 0-.6-1.9l.3-.3 1 .6h21.3l-1-8H98v52.9h29.5l1-8.2h-20.5Zm-27.4-44.7H50.8v53h8.7v-21.4l-.1-1-.5-.9.3-.3.8.5 1 .1h17.8v-8h-18l-1 .1-.8.5-.3-.3.7-1 .1-.8V430c0-.6-.2-1-.3-1.1 0-.3-.3-.5-.5-.8l.4-.3c.3.3.6.5.8.5l1 .2h21l-1.3-8.3Z"/>
    </g>
    <defs>
        <clipPath id="a">
            <path fill="#fff" d="M0 0h596.4v571.6H0z"/>
        </clipPath>
    </defs>
</svg>